<?xml version="1.0" encoding="UTF-8"?>
<svg version="1.1" xmlns="http://www.w3.org/2000/svg" width="800" height="800">
<path d="M0 0 C264 0 528 0 800 0 C800 264 800 528 800 800 C536 800 272 800 0 800 C0 536 0 272 0 0 Z " fill="#F5F2E4" transform="translate(0,0)"/>
<path d="M0 0 C0.969375 0.5775 1.93875 1.155 2.9375 1.75 C4.030625 2.3275 5.12375 2.905 6.25 3.5 C8.9375 5.75 8.9375 5.75 9.9375 9.3125 C9.9375 12.75 9.9375 12.75 7.9375 15.75 C7.2775 15.75 6.6175 15.75 5.9375 15.75 C5.916875 16.3275 5.89625 16.905 5.875 17.5 C4.34194461 21.17933295 1.45351757 22.02283347 -2.0625 23.75 C-2.7225 23.75 -3.3825 23.75 -4.0625 23.75 C-4.124375 24.348125 -4.18625 24.94625 -4.25 25.5625 C-5.3861757 28.62143458 -7.23580142 29.30041099 -10.0625 30.75 C-7.34365968 31.6200289 -5.34760745 31.73767427 -2.4375 31.6875 C0.9375 31.75 0.9375 31.75 2.9375 33.75 C5.50811311 34.39767793 5.50811311 34.39767793 7.9375 34.75 C7.6075 36.73 7.2775 38.71 6.9375 40.75 C7.9275 41.08 8.9175 41.41 9.9375 41.75 C10.81038452 47.16424317 11.1323868 50.62859747 8.9375 55.75 C9.56790043 57.10085807 10.24001417 58.43252676 10.9375 59.75 C11.27710078 64.41951073 10.7157012 67.48231711 8.9375 71.75 C9.2675 72.74 9.5975 73.73 9.9375 74.75 C10.05790604 76.87250645 10.11283819 78.99911587 10.125 81.125 C10.13917969 82.24648438 10.15335938 83.36796875 10.16796875 84.5234375 C9.94115368 87.69884842 9.29140668 89.89234718 7.9375 92.75 C8.5975 92.75 9.2575 92.75 9.9375 92.75 C10.0625 95.125 10.0625 95.125 9.9375 97.75 C9.2775 98.41 8.6175 99.07 7.9375 99.75 C6.9475 99.75 5.9575 99.75 4.9375 99.75 C4.855 100.348125 4.7725 100.94625 4.6875 101.5625 C3.70637152 104.42412475 2.53938573 105.26320815 -0.0625 106.75 C-1.3825 106.75 -2.7025 106.75 -4.0625 106.75 C-4.3925 108.4 -4.7225 110.05 -5.0625 111.75 C-6.485625 111.440625 -6.485625 111.440625 -7.9375 111.125 C-8.96875 111.00125 -10 110.8775 -11.0625 110.75 C-11.7225 111.41 -12.3825 112.07 -13.0625 112.75 C-15.3046875 113.05078125 -15.3046875 113.05078125 -17.9375 113.0625 C-18.80117188 113.07925781 -19.66484375 113.09601563 -20.5546875 113.11328125 C-23.54812909 112.67965186 -24.9261427 111.87145248 -27.0625 109.75 C-27.0625 108.76 -27.0625 107.77 -27.0625 106.75 C-27.68125 106.688125 -28.3 106.62625 -28.9375 106.5625 C-31.0625 105.75 -31.0625 105.75 -32.3125 103.8125 C-33.36928605 99.49729031 -33.59432728 95.16885899 -33.0625 90.75 C-32.4025 90.09 -31.7425 89.43 -31.0625 88.75 C-31.41605436 86.48725212 -32.03794426 84.79911148 -33.0625 82.75 C-33.52530992 76.50206612 -33.52530992 76.50206612 -31.5625 73.3125 C-30.82 72.5390625 -30.82 72.5390625 -30.0625 71.75 C-30.54976562 71.20214844 -31.03703125 70.65429688 -31.5390625 70.08984375 C-34.19720663 66.00720699 -33.61520714 61.45850516 -33.0625 56.75 C-31.5 53.75 -31.5 53.75 -30.0625 51.75 C-30.3925 50.76 -30.7225 49.77 -31.0625 48.75 C-33.70823501 50.97877725 -33.70823501 50.97877725 -36.0625 53.75 C-36.01752158 56.02523089 -36.01752158 56.02523089 -35.0625 57.75 C-36.0525 57.75 -37.0425 57.75 -38.0625 57.75 C-37.4025 58.74 -36.7425 59.73 -36.0625 60.75 C-36.25 62.875 -36.25 62.875 -37.0625 64.75 C-38.0525 65.08 -39.0425 65.41 -40.0625 65.75 C-39.835625 66.471875 -39.60875 67.19375 -39.375 67.9375 C-38.97572979 71.5309319 -39.88885074 72.93230651 -42.0625 75.75 C-42.7225 75.75 -43.3825 75.75 -44.0625 75.75 C-43.7325 78.06 -43.4025 80.37 -43.0625 82.75 C-44.0525 83.41 -45.0425 84.07 -46.0625 84.75 C-46.10570247 87.08293334 -46.10272391 89.4170134 -46.0625 91.75 C-46.8125 94.125 -46.8125 94.125 -48.0625 95.75 C-50.1875 96.5 -50.1875 96.5 -52.0625 96.75 C-52.10375 97.3275 -52.145 97.905 -52.1875 98.5 C-53.51703129 101.91879475 -55.95916629 102.97666645 -59.0625 104.75 C-59.7225 104.75 -60.3825 104.75 -61.0625 104.75 C-61.7225 106.4 -62.3825 108.05 -63.0625 109.75 C-64.01125 109.564375 -64.96 109.37875 -65.9375 109.1875 C-68.96118793 108.46313368 -68.96118793 108.46313368 -71.0625 109.75 C-76.30616945 110.09384718 -79.85467137 110.30035541 -84.0625 106.75 C-84.0625 105.76 -84.0625 104.77 -84.0625 103.75 C-84.68125 103.481875 -85.3 103.21375 -85.9375 102.9375 C-88.0625 101.75 -88.0625 101.75 -90.0625 98.75 C-90.60166146 96.0897977 -90.79620098 93.45737337 -91.0625 90.75 C-92.0525 90.75 -93.0425 90.75 -94.0625 90.75 C-95.39583333 93.75 -95.39583333 93.75 -94.0625 96.75 C-95.0625 97.75 -95.0625 97.75 -97.625 97.8125 C-98.429375 97.791875 -99.23375 97.77125 -100.0625 97.75 C-100.0625 99.4 -100.0625 101.05 -100.0625 102.75 C-101.0525 102.75 -102.0425 102.75 -103.0625 102.75 C-103.0625 103.74 -103.0625 104.73 -103.0625 105.75 C-104.7125 105.75 -106.3625 105.75 -108.0625 105.75 C-108.3925 107.4 -108.7225 109.05 -109.0625 110.75 C-109.84625 110.54375 -110.63 110.3375 -111.4375 110.125 C-112.30375 110.00125 -113.17 109.8775 -114.0625 109.75 C-114.7225 110.41 -115.3825 111.07 -116.0625 111.75 C-121.00749137 112.21650862 -124.11441542 111.86061209 -128.0625 108.75 C-128.0625 108.09 -128.0625 107.43 -128.0625 106.75 C-128.7225 106.75 -129.3825 106.75 -130.0625 106.75 C-130.5575 103.285 -130.5575 103.285 -131.0625 99.75 C-132.031875 99.605625 -133.00125 99.46125 -134 99.3125 C-137.0625 98.75 -137.0625 98.75 -138.0625 97.75 C-138.1875 95.25 -138.1875 95.25 -138.0625 92.75 C-137.7325 92.42 -137.4025 92.09 -137.0625 91.75 C-137.84625 91.0075 -138.63 90.265 -139.4375 89.5 C-142.96076426 85.80896125 -143.98519604 84.2445433 -144.25 79.125 C-144.0625 75.75 -144.0625 75.75 -143.0625 73.75 C-144.5475 73.255 -144.5475 73.255 -146.0625 72.75 C-145.5675 70.77 -145.5675 70.77 -145.0625 68.75 C-147.0425 67.76 -147.0425 67.76 -149.0625 66.75 C-149.619375 68.6371875 -149.619375 68.6371875 -150.1875 70.5625 C-150.50074219 71.62404297 -150.50074219 71.62404297 -150.8203125 72.70703125 C-151.32343748 75.06145413 -151.32343748 75.06145413 -149.0625 77.75 C-148.59718591 82.77539212 -149.08489156 85.65578839 -152.0625 89.75 C-150.5775 90.245 -150.5775 90.245 -149.0625 90.75 C-149.0625 92.4 -149.0625 94.05 -149.0625 95.75 C-150.7125 96.08 -152.3625 96.41 -154.0625 96.75 C-154.1553125 97.8946875 -154.1553125 97.8946875 -154.25 99.0625 C-155.0625 101.75 -155.0625 101.75 -157.4375 103.5625 C-160.0625 104.75 -160.0625 104.75 -163.0625 104.75 C-163.145 105.53375 -163.2275 106.3175 -163.3125 107.125 C-164.0625 109.75 -164.0625 109.75 -165.75 111.0625 C-168.70646493 111.94144903 -170.99061763 112.06998775 -174.0625 111.75 C-176.4375 110.25 -176.4375 110.25 -178.0625 108.75 C-179.0525 109.245 -179.0525 109.245 -180.0625 109.75 C-186.35334967 110.20751634 -186.35334967 110.20751634 -189 108.5 C-190.0625 106.75 -190.0625 106.75 -190.0625 102.75 C-191.0215625 102.2859375 -191.0215625 102.2859375 -192 101.8125 C-194.0625 100.75 -194.0625 100.75 -195.0625 99.75 C-194.70362641 96.57994998 -194.27058709 93.51992223 -193.4375 90.4375 C-192.85280774 88.64389066 -192.85280774 88.64389066 -194.0625 86.75 C-194.18521508 84.60676694 -194.23803395 82.45920998 -194.25 80.3125 C-194.26417969 79.15878906 -194.27835937 78.00507813 -194.29296875 76.81640625 C-194.0625 73.75 -194.0625 73.75 -192.0625 70.75 C-193.3825 70.75 -194.7025 70.75 -196.0625 70.75 C-196.59404742 72.35064843 -197.11238353 73.95568874 -197.625 75.5625 C-197.91503906 76.45582031 -198.20507812 77.34914063 -198.50390625 78.26953125 C-199.31229556 80.86215139 -199.31229556 80.86215139 -198.0625 83.75 C-197.71539256 90.22933884 -197.71539256 90.22933884 -200.0625 93.75 C-199.4025 93.75 -198.7425 93.75 -198.0625 93.75 C-198.2009976 96.72769846 -198.37368434 98.96826492 -200.39453125 101.26171875 C-204.50250716 104.75 -204.50250716 104.75 -207.0625 104.75 C-207.5575 106.235 -207.5575 106.235 -208.0625 107.75 C-208.7225 107.75 -209.3825 107.75 -210.0625 107.75 C-210.35125 108.389375 -210.64 109.02875 -210.9375 109.6875 C-212.0625 111.75 -212.0625 111.75 -214.0625 112.75 C-219.43973857 113.21244252 -224.02149535 112.81810447 -229.0625 110.75 C-230.0525 111.74 -230.0525 111.74 -231.0625 112.75 C-234.1875 112.375 -234.1875 112.375 -237.0625 111.75 C-237.3925 110.43 -237.7225 109.11 -238.0625 107.75 C-239.3825 107.42 -240.7025 107.09 -242.0625 106.75 C-243.08879452 102.13167467 -243.24556917 98.33439305 -242.0625 93.75 C-242.0625 92.76 -242.0625 91.77 -242.0625 90.75 C-242.3925 90.42 -242.7225 90.09 -243.0625 89.75 C-242.36482558 83.35465116 -242.36482558 83.35465116 -241.0625 80.75 C-241.7225 79.76 -242.3825 78.77 -243.0625 77.75 C-242.75 75.8125 -242.75 75.8125 -242.0625 73.75 C-241.0331844 70.68532406 -241.0331844 70.68532406 -242.0625 67.75 C-242.18457871 65.96140489 -242.23798448 64.16771619 -242.25 62.375 C-242.26417969 61.41851562 -242.27835937 60.46203125 -242.29296875 59.4765625 C-242.05995572 56.71989983 -241.47170164 55.10052605 -240.0625 52.75 C-240.5575 52.193125 -241.0525 51.63625 -241.5625 51.0625 C-243.34353013 48.31674522 -243.47453933 46.96390677 -243.0625 43.75 C-242.4025 42.76 -241.7425 41.77 -241.0625 40.75 C-241.40152344 40.18667969 -241.74054688 39.62335938 -242.08984375 39.04296875 C-243.23257895 36.34905082 -243.08355279 34.92254575 -242.625 32.0625 C-242.40227627 30.63003477 -242.20587906 29.19256887 -242.0625 27.75 C-242.3925 27.42 -242.7225 27.09 -243.0625 26.75 C-243.10313832 25.08382885 -243.105221 23.41611905 -243.0625 21.75 C-241.4125 21.42 -239.7625 21.09 -238.0625 20.75 C-238.0625 19.76 -238.0625 18.77 -238.0625 17.75 C-235.42990403 15.33085776 -233.46821201 13.88523734 -230.0625 12.75 C-228.70422029 11.10360035 -227.36995749 9.43704193 -226.0625 7.75 C-223.34398823 6.39074411 -221.07132974 6.68731605 -218.0625 6.75 C-217.4025 6.75 -216.7425 6.75 -216.0625 6.75 C-215.4025 6.09 -214.7425 5.43 -214.0625 4.75 C-211.8984375 4.7734375 -211.8984375 4.7734375 -209.4375 5.125 C-208.62023437 5.23585938 -207.80296875 5.34671875 -206.9609375 5.4609375 C-206.33445312 5.55632812 -205.70796875 5.65171875 -205.0625 5.75 C-204.93875 6.39066406 -204.815 7.03132813 -204.6875 7.69140625 C-204.48125 8.37074219 -204.275 9.05007813 -204.0625 9.75 C-203.4025 10.059375 -202.7425 10.36875 -202.0625 10.6875 C-200.0625 11.75 -200.0625 11.75 -199.3125 13.9375 C-198.53419811 22.69339623 -198.53419811 22.69339623 -200.0625 25.75 C-199.423125 26.059375 -198.78375 26.36875 -198.125 26.6875 C-196.0625 27.75 -196.0625 27.75 -195.0625 28.75 C-195.02186168 30.41617115 -195.019779 32.08388095 -195.0625 33.75 C-193.804375 33.62625 -192.54625 33.5025 -191.25 33.375 C-190.18845703 33.27058594 -190.18845703 33.27058594 -189.10546875 33.1640625 C-186.76261858 32.82334609 -186.76261858 32.82334609 -184.0625 30.75 C-180.35705413 30.55149397 -177.59244613 30.57335129 -174.0625 31.75 C-173.0725 30.76 -173.0725 30.76 -172.0625 29.75 C-169.9375 30.125 -169.9375 30.125 -168.0625 30.75 C-167.5675 32.73 -167.5675 32.73 -167.0625 34.75 C-165.969375 34.8325 -164.87625 34.915 -163.75 35 C-160.0625 35.75 -160.0625 35.75 -158.125 37.5 C-156.89532092 40.10402628 -156.82526019 41.90312226 -157.0625 44.75 C-153.5975 44.255 -153.5975 44.255 -150.0625 43.75 C-150.000625 43.151875 -149.93875 42.55375 -149.875 41.9375 C-148.73270358 38.86208657 -146.88421939 38.29522728 -144.0625 36.75 C-142.17170709 35.0773755 -141.09907142 33.82111109 -139.9375 31.5625 C-137.21991009 28.93549642 -134.87511562 29.31031231 -131.21875 29.31640625 C-128.59854175 29.84329595 -127.66807814 30.64525173 -126.0625 32.75 C-126.0625 33.41 -126.0625 34.07 -126.0625 34.75 C-125.175625 34.6675 -124.28875 34.585 -123.375 34.5 C-119.23623382 34.81235971 -117.78163126 35.6309965 -115.0625 38.75 C-114.75 42.5 -114.75 42.5 -115.0625 45.75 C-114.44375 46.03875 -113.825 46.3275 -113.1875 46.625 C-111.0625 47.75 -111.0625 47.75 -109.0625 49.75 C-105.52713882 48.33585553 -104.68502953 47.09646716 -103.0625 43.75 C-100.45930342 41.39872567 -99.64120074 40.75 -96.0625 40.75 C-95.98 40.151875 -95.8975 39.55375 -95.8125 38.9375 C-94.77674684 35.91655327 -93.93491402 35.18620701 -91.0625 33.75 C-85.38336952 33.0359894 -80.4305448 33.92258049 -75.0625 35.75 C-75.3925 38.06 -75.7225 40.37 -76.0625 42.75 C-75.423125 42.894375 -74.78375 43.03875 -74.125 43.1875 C-72.0625 43.75 -72.0625 43.75 -71.0625 44.75 C-70.82521186 51.27542373 -70.82521186 51.27542373 -72.0625 53.75 C-71.0725 53.75 -70.0825 53.75 -69.0625 53.75 C-69.145 52.863125 -69.2275 51.97625 -69.3125 51.0625 C-69.00347242 46.96788459 -68.02019094 45.54781575 -65.0625 42.75 C-62.3125 41.9375 -62.3125 41.9375 -60.0625 41.75 C-60.0625 41.09 -60.0625 40.43 -60.0625 39.75 C-59.4025 39.75 -58.7425 39.75 -58.0625 39.75 C-57.753125 39.110625 -57.44375 38.47125 -57.125 37.8125 C-56.0625 35.75 -56.0625 35.75 -55.0625 34.75 C-53.06291636 34.70919217 -51.06204746 34.70745644 -49.0625 34.75 C-48.4025 33.43 -47.7425 32.11 -47.0625 30.75 C-45.45870659 30.69583812 -43.85438594 30.65713362 -42.25 30.625 C-41.35667969 30.60179687 -40.46335937 30.57859375 -39.54296875 30.5546875 C-37.0625 30.75 -37.0625 30.75 -34.0625 32.75 C-34.0625 33.74 -34.0625 34.73 -34.0625 35.75 C-32.7425 36.41 -31.4225 37.07 -30.0625 37.75 C-30.0625 39.4 -30.0625 41.05 -30.0625 42.75 C-29.0725 42.75 -28.0825 42.75 -27.0625 42.75 C-27.000625 42.1725 -26.93875 41.595 -26.875 41 C-25.72865826 37.82551517 -23.80293158 36.62151425 -21.0625 34.75 C-20.4025 34.75 -19.7425 34.75 -19.0625 34.75 C-19.0625 34.09 -19.0625 33.43 -19.0625 32.75 C-19.64 32.70875 -20.2175 32.6675 -20.8125 32.625 C-24.27752341 31.27749089 -25.29061794 28.92716783 -27.0625 25.75 C-27.40310811 24.08480481 -27.73808396 22.41842534 -28.0625 20.75 C-29.0525 20.09 -30.0425 19.43 -31.0625 18.75 C-31.25 15.625 -31.25 15.625 -31.0625 12.75 C-27.5975 12.255 -27.5975 12.255 -24.0625 11.75 C-23.4025 9.44 -22.7425 7.13 -22.0625 4.75 C-20.94875 4.6675 -19.835 4.585 -18.6875 4.5 C-17.49125 4.2525 -16.295 4.005 -15.0625 3.75 C-13.76184079 1.81616713 -13.76184079 1.81616713 -13.0625 -0.25 C-8.39635381 -1.80538206 -4.58169881 -1.87008115 0 0 Z " fill="#DE713A" transform="translate(609.0625,342.25)"/>
<path d="M0 0 C1.65322266 0.01740234 1.65322266 0.01740234 3.33984375 0.03515625 C4.44457031 0.04417969 5.54929687 0.05320312 6.6875 0.0625 C7.54214844 0.07410156 8.39679688 0.08570313 9.27734375 0.09765625 C10.26734375 2.07765625 10.26734375 2.07765625 11.27734375 4.09765625 C12.92734375 4.09765625 14.57734375 4.09765625 16.27734375 4.09765625 C16.07109375 4.69578125 15.86484375 5.29390625 15.65234375 5.91015625 C14.9706246 8.38216471 14.9706246 8.38216471 17.27734375 11.09765625 C17.21546875 12.39703125 17.15359375 13.69640625 17.08984375 15.03515625 C16.96187968 17.13710593 16.96187968 17.13710593 17.27734375 19.09765625 C19.5980434 21.52181626 19.5980434 21.52181626 22.27734375 23.09765625 C22.60734375 23.75765625 22.93734375 24.41765625 23.27734375 25.09765625 C25.16499278 25.7823829 25.16499278 25.7823829 27.33984375 26.22265625 C28.07332031 26.39023437 28.80679688 26.5578125 29.5625 26.73046875 C30.12839844 26.85164063 30.69429687 26.9728125 31.27734375 27.09765625 C31.60734375 28.74765625 31.93734375 30.39765625 32.27734375 32.09765625 C33.48390625 32.28328125 33.48390625 32.28328125 34.71484375 32.47265625 C35.56046875 32.67890625 36.40609375 32.88515625 37.27734375 33.09765625 C38.80226373 36.14749621 38.51296923 38.73999315 38.27734375 42.09765625 C36.96484375 44.03515625 36.96484375 44.03515625 35.27734375 45.09765625 C34.28734375 45.09765625 33.29734375 45.09765625 32.27734375 45.09765625 C32.21546875 45.67515625 32.15359375 46.25265625 32.08984375 46.84765625 C30.93533527 50.04475666 29.06186396 51.24130945 26.27734375 53.09765625 C25.28734375 53.09765625 24.29734375 53.09765625 23.27734375 53.09765625 C23.07109375 53.65453125 22.86484375 54.21140625 22.65234375 54.78515625 C20.72733601 58.02266927 18.23883473 59.77996766 15.27734375 62.09765625 C15.93734375 62.75765625 16.59734375 63.41765625 17.27734375 64.09765625 C17.27734375 65.08765625 17.27734375 66.07765625 17.27734375 67.09765625 C18.37046875 67.20078125 19.46359375 67.30390625 20.58984375 67.41015625 C24.27734375 68.09765625 24.27734375 68.09765625 26.21484375 69.41015625 C27.27734375 71.09765625 27.27734375 71.09765625 27.27734375 75.09765625 C29.58734375 75.42765625 31.89734375 75.75765625 34.27734375 76.09765625 C35.26734375 74.11765625 35.26734375 74.11765625 36.27734375 72.09765625 C35.53484375 71.26234375 35.53484375 71.26234375 34.77734375 70.41015625 C32.97802005 67.63619887 32.79013346 66.34572486 33.27734375 63.09765625 C34.05078125 62.07671875 34.05078125 62.07671875 34.83984375 61.03515625 C35.31421875 60.39578125 35.78859375 59.75640625 36.27734375 59.09765625 C35.87795608 56.9994441 35.87795608 56.9994441 35.27734375 55.09765625 C36.26734375 54.10765625 36.26734375 54.10765625 37.27734375 53.09765625 C37.96834928 51.10593443 38.63637078 49.10603821 39.27734375 47.09765625 C40.27734375 46.09765625 40.27734375 46.09765625 42.83984375 46.03515625 C43.64421875 46.05578125 44.44859375 46.07640625 45.27734375 46.09765625 C45.71046875 44.67453125 45.71046875 44.67453125 46.15234375 43.22265625 C47.27734375 40.09765625 47.27734375 40.09765625 49.27734375 38.09765625 C51.90234375 37.97265625 51.90234375 37.97265625 54.27734375 38.09765625 C54.52097656 37.50339844 54.76460937 36.90914063 55.015625 36.296875 C57.30546456 32.30560667 61.27642865 30.19617545 65.27734375 28.09765625 C67.65766404 27.48467903 69.81390525 27.29875327 72.27734375 27.09765625 C72.93734375 26.43765625 73.59734375 25.77765625 74.27734375 25.09765625 C76.30078125 24.90234375 76.30078125 24.90234375 78.65234375 24.97265625 C79.42320312 24.99070312 80.1940625 25.00875 80.98828125 25.02734375 C81.74367188 25.05054688 82.4990625 25.07375 83.27734375 25.09765625 C84.59734375 25.09765625 85.91734375 25.09765625 87.27734375 25.09765625 C87.60734375 24.76765625 87.93734375 24.43765625 88.27734375 24.09765625 C95.30764678 23.51179766 95.30764678 23.51179766 99.27734375 25.91015625 C101.27734375 28.09765625 101.27734375 28.09765625 101.27734375 31.09765625 C102.14359375 30.85015625 103.00984375 30.60265625 103.90234375 30.34765625 C108.34974645 30.01821901 109.88501405 31.30840739 113.27734375 34.09765625 C116.74360061 37.82067287 119.09169064 42.56039712 119.46484375 47.66015625 C117.80751951 51.06203233 115.28794432 52.5860007 112.1875 54.66796875 C110.01682974 56.1268688 110.01682974 56.1268688 108.27734375 59.09765625 C107.28734375 59.09765625 106.29734375 59.09765625 105.27734375 59.09765625 C104.61734375 60.41765625 103.95734375 61.73765625 103.27734375 63.09765625 C100.944396 63.14007348 98.61031808 63.13858562 96.27734375 63.09765625 C95.94734375 62.76765625 95.61734375 62.43765625 95.27734375 62.09765625 C92.01890846 61.55685597 88.75051493 61.13159507 85.4765625 60.6953125 C82.66025642 60.16918939 80.71995693 59.53909958 78.27734375 58.09765625 C77.61734375 59.74765625 76.95734375 61.39765625 76.27734375 63.09765625 C77.59734375 63.75765625 78.91734375 64.41765625 80.27734375 65.09765625 C80.27734375 66.41765625 80.27734375 67.73765625 80.27734375 69.09765625 C81.42203125 69.28328125 81.42203125 69.28328125 82.58984375 69.47265625 C85.27734375 70.09765625 85.27734375 70.09765625 88.27734375 72.09765625 C89.26734375 71.43765625 90.25734375 70.77765625 91.27734375 70.09765625 C93.96484375 69.97265625 93.96484375 69.97265625 96.27734375 70.09765625 C96.60734375 69.43765625 96.93734375 68.77765625 97.27734375 68.09765625 C103.90234375 67.97265625 103.90234375 67.97265625 107.27734375 69.09765625 C107.93734375 68.76765625 108.59734375 68.43765625 109.27734375 68.09765625 C112.15234375 67.72265625 112.15234375 67.72265625 115.27734375 68.09765625 C117.71484375 70.16015625 117.71484375 70.16015625 119.27734375 73.09765625 C119.68053711 79.9519434 115.49879631 85.05587775 111.27734375 90.09765625 C108.27734375 92.09765625 108.27734375 92.09765625 105.27734375 92.09765625 C105.27734375 93.08765625 105.27734375 94.07765625 105.27734375 95.09765625 C102.28243165 98.75709292 99.29956256 100.90378717 94.65234375 101.78515625 C93.53859375 101.88828125 92.42484375 101.99140625 91.27734375 102.09765625 C90.52710938 102.59007812 89.776875 103.0825 89.00390625 103.58984375 C82.87999996 106.97641657 74.30980893 105.79368543 67.65234375 104.265625 C64.49289856 103.28926867 61.38766594 102.21927036 58.27734375 101.09765625 C56.92717597 100.7085042 55.57367252 100.33039461 54.21484375 99.97265625 C47.28823695 97.90941167 44.28344478 94.10680779 40.27734375 88.09765625 C40.27734375 86.77765625 40.27734375 85.45765625 40.27734375 84.09765625 C38.62734375 83.76765625 36.97734375 83.43765625 35.27734375 83.09765625 C35.79296875 83.65453125 36.30859375 84.21140625 36.83984375 84.78515625 C38.27734375 87.09765625 38.27734375 87.09765625 38.21484375 89.72265625 C37.04838074 92.67769587 36.05571074 92.79529672 33.27734375 94.09765625 C33.13296875 94.73703125 32.98859375 95.37640625 32.83984375 96.03515625 C32.27734375 98.09765625 32.27734375 98.09765625 29.90234375 99.84765625 C27.27734375 101.09765625 27.27734375 101.09765625 24.27734375 101.09765625 C24.15359375 101.90203125 24.02984375 102.70640625 23.90234375 103.53515625 C23.69609375 104.38078125 23.48984375 105.22640625 23.27734375 106.09765625 C18.81498084 108.3288377 13.114649 107.59420083 8.27734375 107.09765625 C5.21498079 106.05040373 2.47616645 104.79808748 -0.3828125 103.2890625 C-4.03633994 101.4287522 -7.23237832 101.02516848 -11.28515625 100.78515625 C-15.45078298 100.3344491 -15.45078298 100.3344491 -17.66015625 98.41015625 C-18.90853233 95.69310242 -19.81142563 92.94525192 -20.72265625 90.09765625 C-21.25890625 89.25203125 -21.79515625 88.40640625 -22.34765625 87.53515625 C-24.49023452 82.17871056 -23.9509708 76.79706388 -23.72265625 71.09765625 C-24.34140625 70.82953125 -24.96015625 70.56140625 -25.59765625 70.28515625 C-27.72265625 69.09765625 -27.72265625 69.09765625 -29.72265625 66.09765625 C-29.91796875 63.8359375 -29.91796875 63.8359375 -29.84765625 61.41015625 C-29.82960938 60.60191406 -29.8115625 59.79367187 -29.79296875 58.9609375 C-29.76976562 58.34605469 -29.7465625 57.73117187 -29.72265625 57.09765625 C-31.37265625 56.76765625 -33.02265625 56.43765625 -34.72265625 56.09765625 C-36.28537814 60.49019398 -36.28537814 60.49019398 -36.72265625 65.09765625 C-36.39265625 65.42765625 -36.06265625 65.75765625 -35.72265625 66.09765625 C-35.41398344 69.5702254 -35.33564286 71.48488505 -37.22265625 74.47265625 C-37.71765625 75.00890625 -38.21265625 75.54515625 -38.72265625 76.09765625 C-37.23765625 76.59265625 -37.23765625 76.59265625 -35.72265625 77.09765625 C-33.19755302 80.55306067 -33.35868286 83.94835963 -33.72265625 88.09765625 C-35.75427213 92.18727263 -38.38849392 94.89367999 -41.78515625 97.91015625 C-42.66300781 98.70035156 -43.54085937 99.49054688 -44.4453125 100.3046875 C-46.72265625 102.09765625 -46.72265625 102.09765625 -48.72265625 102.09765625 C-49.21765625 103.58265625 -49.21765625 103.58265625 -49.72265625 105.09765625 C-54.1696601 108.06232548 -58.50394188 107.62333697 -63.72265625 107.09765625 C-66.91015625 105.59765625 -66.91015625 105.59765625 -68.72265625 104.09765625 C-69.21765625 105.58265625 -69.21765625 105.58265625 -69.72265625 107.09765625 C-73.59765625 105.34765625 -73.59765625 105.34765625 -74.72265625 103.09765625 C-75.89828125 103.40703125 -75.89828125 103.40703125 -77.09765625 103.72265625 C-77.96390625 103.84640625 -78.83015625 103.97015625 -79.72265625 104.09765625 C-80.71265625 103.10765625 -80.71265625 103.10765625 -81.72265625 102.09765625 C-84.51409564 102.08282395 -87.2501768 102.15855337 -90.03515625 102.28515625 C-98.73641968 102.5059255 -104.82770147 100.86803986 -112.72265625 97.09765625 C-113.63789063 96.77539062 -114.553125 96.453125 -115.49609375 96.12109375 C-117.72265625 95.09765625 -117.72265625 95.09765625 -119.03515625 92.09765625 C-120.12524694 87.21281588 -121.00678185 80.66590746 -118.72265625 76.09765625 C-118.06265625 76.09765625 -117.40265625 76.09765625 -116.72265625 76.09765625 C-116.64015625 75.52015625 -116.55765625 74.94265625 -116.47265625 74.34765625 C-115.49927515 71.42751295 -114.0465235 70.07977832 -111.72265625 68.09765625 C-110.23765625 67.60265625 -110.23765625 67.60265625 -108.72265625 67.09765625 C-107.85640625 65.95296875 -107.85640625 65.95296875 -106.97265625 64.78515625 C-103.15652408 60.22699837 -99.08084955 58.08622248 -93.28515625 57.34765625 C-92.10953125 57.26515625 -90.93390625 57.18265625 -89.72265625 57.09765625 C-89.72265625 56.43765625 -89.72265625 55.77765625 -89.72265625 55.09765625 C-90.49609375 55.34515625 -90.49609375 55.34515625 -91.28515625 55.59765625 C-96.19025029 56.60382939 -100.88410871 56.24362803 -105.72265625 55.09765625 C-106.60953125 54.95328125 -107.49640625 54.80890625 -108.41015625 54.66015625 C-110.72265625 54.09765625 -110.72265625 54.09765625 -112.72265625 52.09765625 C-113.42578125 49.78515625 -113.42578125 49.78515625 -113.97265625 47.09765625 C-114.1634375 46.21078125 -114.35421875 45.32390625 -114.55078125 44.41015625 C-114.6075 43.64703125 -114.66421875 42.88390625 -114.72265625 42.09765625 C-114.06265625 41.43765625 -113.40265625 40.77765625 -112.72265625 40.09765625 C-111.40265625 40.09765625 -110.08265625 40.09765625 -108.72265625 40.09765625 C-108.62984375 39.20046875 -108.62984375 39.20046875 -108.53515625 38.28515625 C-107.37995082 35.17498778 -105.65388438 34.49347917 -102.72265625 33.09765625 C-101.73265625 33.09765625 -100.74265625 33.09765625 -99.72265625 33.09765625 C-99.06265625 31.44765625 -98.40265625 29.79765625 -97.72265625 28.09765625 C-96.73265625 28.09765625 -95.74265625 28.09765625 -94.72265625 28.09765625 C-94.39265625 28.75765625 -94.06265625 29.41765625 -93.72265625 30.09765625 C-93.06265625 29.10765625 -92.40265625 28.11765625 -91.72265625 27.09765625 C-88.63786116 26.37568293 -85.8894642 26.09765625 -82.72265625 26.09765625 C-82.06265625 25.43765625 -81.40265625 24.77765625 -80.72265625 24.09765625 C-78.6640625 23.83203125 -78.6640625 23.83203125 -76.28515625 23.84765625 C-75.11146484 23.83992188 -75.11146484 23.83992188 -73.9140625 23.83203125 C-71.72265625 24.09765625 -71.72265625 24.09765625 -68.72265625 26.09765625 C-68.22765625 24.61265625 -68.22765625 24.61265625 -67.72265625 23.09765625 C-66.73265625 23.09765625 -65.74265625 23.09765625 -64.72265625 23.09765625 C-64.22765625 25.07765625 -64.22765625 25.07765625 -63.72265625 27.09765625 C-62.73265625 26.43765625 -61.74265625 25.77765625 -60.72265625 25.09765625 C-57.4253983 25.2667464 -56.10333135 25.70470131 -53.78515625 28.09765625 C-51.1709437 30.63265023 -49.26212709 30.63598614 -45.72265625 31.09765625 C-43.72265625 33.09765625 -43.72265625 33.09765625 -43.59765625 35.72265625 C-43.63890625 36.50640625 -43.68015625 37.29015625 -43.72265625 38.09765625 C-41.41265625 38.42765625 -39.10265625 38.75765625 -36.72265625 39.09765625 C-36.61953125 38.49953125 -36.51640625 37.90140625 -36.41015625 37.28515625 C-35.60851785 34.7344886 -34.82233061 33.7307363 -32.72265625 32.09765625 C-31.40265625 31.76765625 -30.08265625 31.43765625 -28.72265625 31.09765625 C-28.06265625 28.45765625 -27.40265625 25.81765625 -26.72265625 23.09765625 C-25.40265625 22.76765625 -24.08265625 22.43765625 -22.72265625 22.09765625 C-22.80515625 21.02515625 -22.88765625 19.95265625 -22.97265625 18.84765625 C-22.72265625 15.09765625 -22.72265625 15.09765625 -21.03515625 12.66015625 C-18.33854816 10.83812376 -16.91139174 10.74335231 -13.72265625 11.09765625 C-13.61953125 10.33453125 -13.51640625 9.57140625 -13.41015625 8.78515625 C-12.64587829 5.79752421 -12.1906521 4.88482566 -9.72265625 3.09765625 C-7.73909142 2.38357291 -5.73950188 1.71147883 -3.72265625 1.09765625 C-2.72265625 0.09765625 -2.72265625 0.09765625 0 0 Z " fill="#DE713A" transform="translate(245.72265625,347.90234375)"/>
<path d="M0 0 C1.0209375 0.495 1.0209375 0.495 2.0625 1 C2.7225 0.34 3.3825 -0.32 4.0625 -1 C7.1875 -1.125 7.1875 -1.125 10.0625 -1 C10.7225 0.32 11.3825 1.64 12.0625 3 C14.0425 2.67 16.0225 2.34 18.0625 2 C18.0625 2.66 18.0625 3.32 18.0625 4 C18.92875 3.896875 19.795 3.79375 20.6875 3.6875 C25.39762115 4.12362233 26.77680778 5.63789634 30.0625 9 C30.8125 11.1875 30.8125 11.1875 31.0625 13 C32.0525 13.99 32.0525 13.99 33.0625 15 C33 17 33 17 32.0625 19 C31.32 19.268125 30.5775 19.53625 29.8125 19.8125 C26.30747697 21.32603267 25.18622628 23.29149074 23.17578125 26.44140625 C22.0625 28 22.0625 28 20.0625 29 C20.0625 29.99 20.0625 30.98 20.0625 32 C21.073125 32.04125 22.08375 32.0825 23.125 32.125 C29.19497902 32.96223849 32.93906788 37.85172793 37.0625 42 C37.72603894 38.8297584 38.15402718 36.44746621 37.5 33.25 C37.2834375 32.13625 37.2834375 32.13625 37.0625 31 C37.7225 30.34 38.3825 29.68 39.0625 29 C40.0525 29 41.0425 29 42.0625 29 C42.15917969 28.26265625 42.25585938 27.5253125 42.35546875 26.765625 C43.15655482 23.63209497 44.23742849 22.14847425 46.375 19.75 C46.96925781 19.06421875 47.56351563 18.3784375 48.17578125 17.671875 C50.20535154 15.87341519 51.46323664 15.53873621 54.0625 15 C54.74736725 13.67592331 55.41120203 12.34090759 56.0625 11 C60.39583333 7 60.39583333 7 64.0625 7 C64.289375 6.38125 64.51625 5.7625 64.75 5.125 C66.54797882 2.21398667 67.7479279 1.84627373 71.0625 1 C73.37937009 0.95113806 75.66264922 0.99864296 77.9765625 1.125 C80.37256274 1.15724492 80.37256274 1.15724492 83.0625 -1 C89.71740496 -1.98506338 93.62638581 -1.01237 99.0625 3 C101.25997131 2.70194993 101.25997131 2.70194993 103.0625 2 C105.0625 4 105.0625 4 105.0625 7 C105.81015625 6.92265625 106.5578125 6.8453125 107.328125 6.765625 C110.0625 7 110.0625 7 112.046875 8.609375 C112.62953125 9.31578125 113.2121875 10.0221875 113.8125 10.75 C114.40546875 11.44609375 114.9984375 12.1421875 115.609375 12.859375 C117.06227474 14.99966816 117.47205692 16.52624711 118.0625 19 C119.68803283 20.70680947 121.35365995 22.37660195 123.0625 24 C124.28735812 26.44971624 124.22972808 28.14234461 124.25 30.875 C124.26417969 31.73867188 124.27835938 32.60234375 124.29296875 33.4921875 C124.05109252 36.1241288 123.39233541 37.73980544 122.0625 40 C122.7225 40.33 123.3825 40.66 124.0625 41 C124.0625 41.66 124.0625 42.32 124.0625 43 C123.340625 42.938125 122.61875 42.87625 121.875 42.8125 C118.52340075 43.03593995 116.84524092 44.19497887 114.0625 46 C113.4025 46 112.7425 46 112.0625 46 C112.0625 46.66 112.0625 47.32 112.0625 48 C112.701875 48.268125 113.34125 48.53625 114 48.8125 C116.0625 50 116.0625 50 117.0625 53 C118.0525 53.33 119.0425 53.66 120.0625 54 C119.7325 55.65 119.4025 57.3 119.0625 59 C118.0725 59 117.0825 59 116.0625 59 C115.9078125 60.423125 115.9078125 60.423125 115.75 61.875 C115.0625 65 115.0625 65 112.0625 67 C109.375 67.125 109.375 67.125 107.0625 67 C106.98 67.763125 106.8975 68.52625 106.8125 69.3125 C105.89706067 72.59282427 104.97778755 73.3341214 102.0625 75 C101.0415625 75.2165625 101.0415625 75.2165625 100 75.4375 C97.86321694 75.82445577 97.86321694 75.82445577 96.8125 78 C94.76432766 80.34076839 93.99159757 80.4329982 91 80.875 C89.700625 80.91625 88.40125 80.9575 87.0625 81 C86.4025 80.34 85.7425 79.68 85.0625 79 C84.505625 79.99 84.505625 79.99 83.9375 81 C82.0625 83 82.0625 83 79.25 83.5 C75.36715743 82.89092666 73.16026684 81.3602033 70.0625 79 C69.2271875 79.4640625 69.2271875 79.4640625 68.375 79.9375 C65.78653904 81.12679288 63.92196249 81.86051402 61.0625 82 C58.36691552 80.22336478 56.51607777 78.90715555 55.0625 76 C52.74093403 75.59270772 50.4056213 75.25561323 48.0625 75 C47.98 73.88625 47.8975 72.7725 47.8125 71.625 C47.44125 69.830625 47.44125 69.830625 47.0625 68 C45.22965557 66.87483915 45.22965557 66.87483915 43.0625 66 C39.71573004 61.90950339 38.55911203 59.28557366 39.0625 54 C38.0725 54 37.0825 54 36.0625 54 C36.289375 54.556875 36.51625 55.11375 36.75 55.6875 C37.19213952 58.95933242 35.93306129 60.36735818 34.0625 63 C33.4025 63.66 32.7425 64.32 32.0625 65 C30.7425 65 29.4225 65 28.0625 65 C27.98 65.763125 27.8975 66.52625 27.8125 67.3125 C27.0625 70 27.0625 70 25.25 71.8125 C23.0625 73 23.0625 73 19.0625 73 C18.918125 73.804375 18.77375 74.60875 18.625 75.4375 C18.0625 78 18.0625 78 17.0625 79 C15.06297242 79.04346799 13.06210012 79.039992 11.0625 79 C8.04182209 78.70591415 8.04182209 78.70591415 6 80.5 C0.74223603 83.18481565 -4.44555116 82.72681841 -10.03125 81.09765625 C-12.70021291 80.13118901 -15.3262022 79.11203556 -17.9375 78 C-18.61425781 78.74830078 -18.61425781 78.74830078 -19.3046875 79.51171875 C-20.11292969 80.24841797 -20.11292969 80.24841797 -20.9375 81 C-23.0625 80.8125 -23.0625 80.8125 -24.9375 80 C-25.2675 79.34 -25.5975 78.68 -25.9375 78 C-26.659375 78.0825 -27.38125 78.165 -28.125 78.25 C-31.91206059 77.91337239 -33.30516842 76.70347568 -35.9375 74 C-37.57626146 70.33229577 -38.49528206 67.01603083 -37.9375 63 C-34.9375 61 -34.9375 61 -31.9375 61 C-31.9375 60.34 -31.9375 59.68 -31.9375 59 C-30.9475 58.505 -30.9475 58.505 -29.9375 58 C-29.669375 57.360625 -29.40125 56.72125 -29.125 56.0625 C-27.54508259 53.31843292 -25.8859794 52.93109876 -22.9375 52 C-23.2675 52 -23.5975 52 -23.9375 52 C-25.60571323 51.67449498 -27.27249557 51.34153937 -28.9375 51 C-28.9375 50.01 -28.9375 49.02 -28.9375 48 C-29.53175781 47.7421875 -30.12601563 47.484375 -30.73828125 47.21875 C-33.115007 45.90163023 -34.40535573 44.58656066 -36.125 42.5 C-36.63417969 41.8915625 -37.14335938 41.283125 -37.66796875 40.65625 C-41.31339303 35.9003734 -40.45717074 29.71637811 -39.9375 24 C-38.91417487 21.27921611 -37.99749041 20.12057836 -35.9375 18 C-35.2775 18 -34.6175 18 -33.9375 18 C-33.916875 17.236875 -33.89625 16.47375 -33.875 15.6875 C-33.565625 14.800625 -33.25625 13.91375 -32.9375 13 C-30.61770619 11.96898053 -28.28320085 10.97063483 -25.9375 10 C-23.98249143 7.47019293 -23.98249143 7.47019293 -22.9375 5 C-19.9675 5.495 -19.9675 5.495 -16.9375 6 C-16.9375 5.01 -16.9375 4.02 -16.9375 3 C-11.10667847 -0.80788345 -6.94529965 -2.36435733 0 0 Z " fill="#DE713A" transform="translate(666.9375,373)"/>
<path d="M0 0 C2.30275556 1.8670991 3.67823871 3.35647741 5 6 C5.33 5.67 5.66 5.34 6 5 C9.58763463 4.72923512 12.16858874 4.59495349 15.4375 6.1875 C17 8 17 8 17.25 10.6875 C17.1675 11.450625 17.085 12.21375 17 13 C18.98 13.33 20.96 13.66 23 14 C22.79375 14.78375 22.5875 15.5675 22.375 16.375 C22.189375 17.674375 22.189375 17.674375 22 19 C22.66 19.66 23.32 20.32 24 21 C24.25 23.5 24.25 23.5 24 26 C23.34 26.66 22.68 27.32 22 28 C22.66 28.99 23.32 29.98 24 31 C24 32.32 24 33.64 24 35 C24.598125 34.67 25.19625 34.34 25.8125 34 C28 33 28 33 31 33 C31 31.02 31 29.04 31 27 C32.98 27.33 34.96 27.66 37 28 C37.66 27.01 38.32 26.02 39 25 C40.47968324 25.14049518 41.95874516 25.28754826 43.4375 25.4375 C44.26121094 25.51871094 45.08492188 25.59992188 45.93359375 25.68359375 C48 26 48 26 49 27 C49.61875 26.360625 50.2375 25.72125 50.875 25.0625 C53 23 53 23 55 22 C54.95875 21.05125 54.9175 20.1025 54.875 19.125 C55 16 55 16 57 14 C60.625 13.875 60.625 13.875 64 14 C64.144375 12.865625 64.28875 11.73125 64.4375 10.5625 C65 7 65 7 66 6 C68.5 5.875 68.5 5.875 71 6 C71.495 6.495 71.495 6.495 72 7 C72.37125 5.7934375 72.37125 5.7934375 72.75 4.5625 C74 2 74 2 76.125 1.1875 C76.74375 1.125625 77.3625 1.06375 78 1 C78.99 2.485 78.99 2.485 80 4 C80.53625 3.319375 81.0725 2.63875 81.625 1.9375 C84 0 84 0 87.125 0.125 C90 1 90 1 92 3 C92.103125 3.639375 92.20625 4.27875 92.3125 4.9375 C92.84378448 7.28642979 92.84378448 7.28642979 95.5625 8.5 C96.366875 8.995 97.17125 9.49 98 10 C98 11.32 98 12.64 98 14 C97.34 14.66 96.68 15.32 96 16 C96.99 16.99 96.99 16.99 98 18 C97.875 20.5 97.875 20.5 97 23 C94.9375 24.3125 94.9375 24.3125 93 25 C93.99 25.66 94.98 26.32 96 27 C95.45276317 30.37462715 94.9451 32.08235 93 35 C93.33 35.66 93.66 36.32 94 37 C94.34733262 42.29682248 94.49299205 45.70093287 91 50 C90.34 50 89.68 50 89 50 C89.7734375 51.051875 89.7734375 51.051875 90.5625 52.125 C92.33603072 55.67206143 92.14147004 57.2494556 91 61 C89.4375 62.875 89.4375 62.875 88 64 C88.495 64.350625 88.99 64.70125 89.5 65.0625 C91.79395236 68.02552179 91.38888282 70.37042697 91 74 C89.6875 75.9375 89.6875 75.9375 88 77 C87.01 77 86.02 77 85 77 C85.99 78.485 85.99 78.485 87 80 C87.62136978 84.30923975 87.39594446 88.02993608 85.75 92.0625 C85.1725 92.701875 84.595 93.34125 84 94 C82.68 94 81.36 94 80 94 C79.71125 94.94875 79.4225 95.8975 79.125 96.875 C78 100 78 100 76 102 C73.375 102.125 73.375 102.125 71 102 C70.814375 103.175625 70.814375 103.175625 70.625 104.375 C70 107 70 107 68 109 C65 109.25 65 109.25 62 109 C61.34 108.34 60.68 107.68 60 107 C59.34 107.99 58.68 108.98 58 110 C56.35 109.67 54.7 109.34 53 109 C53 107.02 53 105.04 53 103 C51.948125 102.95875 50.89625 102.9175 49.8125 102.875 C46 102 46 102 43.0625 99.3125 C40.85151533 95.76152463 40.51334804 94.08787651 41 90 C39.35 89.67 37.7 89.34 36 89 C35.690625 89.804375 35.38125 90.60875 35.0625 91.4375 C34 94 34 94 33 95 C31.00041636 95.04080783 28.99954746 95.04254356 27 95 C27.061875 95.763125 27.12375 96.52625 27.1875 97.3125 C27 100 27 100 25.9375 101.8125 C23.00731249 103.60842137 20.3527047 103.18977574 17 103 C17 103.99 17 104.98 17 106 C15.22679112 108.08159303 13.68469445 108.86279208 11.01171875 109.3984375 C5.22529481 109.8181781 2.05969572 108.23066014 -2.37109375 104.60546875 C-4.75001071 102.26078081 -5.96762004 100.69616918 -6.125 97.3125 C-6.08375 96.549375 -6.0425 95.78625 -6 95 C-6.94875 95.04125 -7.8975 95.0825 -8.875 95.125 C-12 95 -12 95 -14 93 C-13.814375 92.195625 -13.62875 91.39125 -13.4375 90.5625 C-13.293125 89.716875 -13.14875 88.87125 -13 88 C-14.41666667 86.41666667 -14.41666667 86.41666667 -16 85 C-16 81 -16 81 -14.5 79.25 C-14.005 78.8375 -13.51 78.425 -13 78 C-13.639375 77.79375 -14.27875 77.5875 -14.9375 77.375 C-17 76 -17 76 -17.9375 73.125 C-18 70 -18 70 -16.5625 67.625 C-16.046875 67.08875 -15.53125 66.5525 -15 66 C-15.825 65.13375 -16.65 64.2675 -17.5 63.375 C-19.58756239 60.88643693 -19.9852047 60.12822593 -20.375 56.75 C-20 54 -20 54 -19 52 C-18.34 52 -17.68 52 -17 52 C-17 51.34 -17 50.68 -17 50 C-18.32 49.34 -19.64 48.68 -21 48 C-20.835 47.401875 -20.67 46.80375 -20.5 46.1875 C-19.8885876 43.88655664 -19.8885876 43.88655664 -20 41 C-20.66 40.01 -21.32 39.02 -22 38 C-22.37569856 34.24301443 -22.1642235 33.24633524 -20 30 C-20.66 29.505 -21.32 29.01 -22 28.5 C-24.10448312 25.86939611 -24.3578457 25.15374106 -24.5 21.9375 C-24 18 -24 18 -22.125 16.3125 C-21.42375 15.879375 -20.7225 15.44625 -20 15 C-19.5359375 13.7625 -19.5359375 13.7625 -19.0625 12.5 C-17.68291482 9.25391723 -16.15236641 8.46085273 -13 7 C-12.01 7 -11.02 7 -10 7 C-9.896875 6.401875 -9.79375 5.80375 -9.6875 5.1875 C-8.06570914 0.02725634 -5.17727742 -0.73961106 0 0 Z " fill="#DE713A" transform="translate(32,346)"/>
<path d="M0 0 C0.99 0 1.98 0 3 0 C3.495 1.98 3.495 1.98 4 4 C4.99 3.34 5.98 2.68 7 2 C10.29725795 2.16909015 11.6193249 2.60704506 13.9375 5 C16.55171255 7.53499398 18.46052916 7.53832989 22 8 C24 10 24 10 24.125 12.625 C24.08375 13.40875 24.0425 14.1925 24 15 C26.31 15.33 28.62 15.66 31 16 C31.103125 15.401875 31.20625 14.80375 31.3125 14.1875 C32.08876455 11.71756736 33.07088921 10.67748765 35 9 C35.99 9.33 36.98 9.66 38 10 C37.34 10 36.68 10 36 10 C35.58730522 13.37034069 35.38392219 15.96283197 37.16015625 18.953125 C39.50573171 21.80860817 41.05874419 23.69273629 44.64453125 24.86328125 C45.42183594 25.23839844 46.19914062 25.61351562 47 26 C47.75 28.4609375 47.75 28.4609375 48 31.375 C48.34207776 34.34446036 48.34207776 34.34446036 49 37 C49.86625 37.66 50.7325 38.32 51.625 39 C54 41 54 41 54.21875 43.42578125 C54.15580918 45.36383394 54.07746737 47.3014427 53.984375 49.23828125 C54.01320567 54.33410179 56.2051407 57.80771104 59 62 C59.185625 63.2375 59.185625 63.2375 59.375 64.5 C59.80352144 67.09839596 59.80352144 67.09839596 61.75 68.8125 C64.42409939 70.22383024 66.01338273 70.30631972 69 70 C69.99 69.67 70.98 69.34 72 69 C74.0234375 69.890625 74.0234375 69.890625 76.375 71.25 C82.32760802 74.41122231 88.4203463 75.73150877 95 77 C94.01 77.33 93.02 77.66 92 78 C91.87625 78.804375 91.7525 79.60875 91.625 80.4375 C91.41875 81.283125 91.2125 82.12875 91 83 C86.53763709 85.23118145 80.83730525 84.49654458 76 84 C72.93763704 82.95274748 70.1988227 81.70043123 67.33984375 80.19140625 C63.68631631 78.33109595 60.49027793 77.92751223 56.4375 77.6875 C52.27187327 77.23679285 52.27187327 77.23679285 50.0625 75.3125 C48.81412392 72.59544617 47.91123062 69.84759567 47 67 C46.46375 66.154375 45.9275 65.30875 45.375 64.4375 C43.23242173 59.08105431 43.77168545 53.69940763 44 48 C43.38125 47.731875 42.7625 47.46375 42.125 47.1875 C40 46 40 46 38 43 C37.8046875 40.73828125 37.8046875 40.73828125 37.875 38.3125 C37.89304687 37.50425781 37.91109375 36.69601562 37.9296875 35.86328125 C37.95289063 35.24839844 37.97609375 34.63351562 38 34 C36.35 33.67 34.7 33.34 33 33 C31.43727811 37.39253773 31.43727811 37.39253773 31 42 C31.33 42.33 31.66 42.66 32 43 C32.30867281 46.47256915 32.38701339 48.3872288 30.5 51.375 C30.005 51.91125 29.51 52.4475 29 53 C30.485 53.495 30.485 53.495 32 54 C34.52510323 57.45540442 34.36397339 60.85070338 34 65 C31.96838412 69.08961638 29.33416233 71.79602374 25.9375 74.8125 C25.05964844 75.60269531 24.18179688 76.39289063 23.27734375 77.20703125 C21 79 21 79 19 79 C18.505 80.485 18.505 80.485 18 82 C13.55299615 84.96466923 9.21871437 84.52568072 4 84 C0.8125 82.5 0.8125 82.5 -1 81 C-1.495 82.485 -1.495 82.485 -2 84 C-5.875 82.25 -5.875 82.25 -7 80 C-8.175625 80.309375 -8.175625 80.309375 -9.375 80.625 C-10.24125 80.74875 -11.1075 80.8725 -12 81 C-12.99 80.01 -12.99 80.01 -14 79 C-16.79143939 78.9851677 -19.52752055 79.06089712 -22.3125 79.1875 C-31.01376343 79.40826925 -37.10504522 77.77038361 -45 74 C-45.91523438 73.67773438 -46.83046875 73.35546875 -47.7734375 73.0234375 C-50 72 -50 72 -51.3125 69 C-52.40259069 64.11515963 -53.2841256 57.56825121 -51 53 C-50.34 53 -49.68 53 -49 53 C-48.9175 52.4225 -48.835 51.845 -48.75 51.25 C-47.7766189 48.3298567 -46.32386725 46.98212207 -44 45 C-42.515 44.505 -42.515 44.505 -41 44 C-40.4225 43.236875 -39.845 42.47375 -39.25 41.6875 C-35.43386783 37.12934212 -31.3581933 34.98856623 -25.5625 34.25 C-24.386875 34.1675 -23.21125 34.085 -22 34 C-22 33.34 -22 32.68 -22 32 C-22.7734375 32.2475 -22.7734375 32.2475 -23.5625 32.5 C-28.46759404 33.50617314 -33.16145246 33.14597178 -38 32 C-38.886875 31.855625 -39.77375 31.71125 -40.6875 31.5625 C-43 31 -43 31 -45 29 C-45.703125 26.6875 -45.703125 26.6875 -46.25 24 C-46.44078125 23.113125 -46.6315625 22.22625 -46.828125 21.3125 C-46.88484375 20.549375 -46.9415625 19.78625 -47 19 C-46.34 18.34 -45.68 17.68 -45 17 C-43.68 17 -42.36 17 -41 17 C-40.938125 16.401875 -40.87625 15.80375 -40.8125 15.1875 C-39.65729457 12.07733153 -37.93122813 11.39582292 -35 10 C-34.01 10 -33.02 10 -32 10 C-31.34 8.35 -30.68 6.7 -30 5 C-29.01 5 -28.02 5 -27 5 C-26.67 5.66 -26.34 6.32 -26 7 C-25.34 6.01 -24.68 5.02 -24 4 C-20.91520491 3.27802668 -18.16680795 3 -15 3 C-14.34 2.34 -13.68 1.68 -13 1 C-10.94140625 0.734375 -10.94140625 0.734375 -8.5625 0.75 C-7.38880859 0.74226563 -7.38880859 0.74226563 -6.19140625 0.734375 C-4 1 -4 1 -1 3 C-0.67 2.01 -0.34 1.02 0 0 Z " fill="#DE713A" transform="translate(178,371)"/>
<path d="M0 0 C3.375 2.0625 3.375 2.0625 6 4 C8.19747131 3.70194993 8.19747131 3.70194993 10 3 C12 5 12 5 12 8 C12.74765625 7.92265625 13.4953125 7.8453125 14.265625 7.765625 C17 8 17 8 18.984375 9.609375 C19.56703125 10.31578125 20.1496875 11.0221875 20.75 11.75 C21.63945313 12.79414063 21.63945313 12.79414063 22.546875 13.859375 C23.99977474 15.99966816 24.40955692 17.52624711 25 20 C26.62553283 21.70680947 28.29115995 23.37660195 30 25 C31.22485812 27.44971624 31.16722808 29.14234461 31.1875 31.875 C31.20167969 32.73867188 31.21585938 33.60234375 31.23046875 34.4921875 C30.98859252 37.1241288 30.32983541 38.73980544 29 41 C29.66 41.33 30.32 41.66 31 42 C31 42.66 31 43.32 31 44 C29.9171875 43.9071875 29.9171875 43.9071875 28.8125 43.8125 C25.46090075 44.03593995 23.78274092 45.19497887 21 47 C20.34 47 19.68 47 19 47 C19 47.66 19 48.32 19 49 C19.639375 49.268125 20.27875 49.53625 20.9375 49.8125 C23 51 23 51 24 54 C25.485 54.495 25.485 54.495 27 55 C26.67 56.65 26.34 58.3 26 60 C25.01 60 24.02 60 23 60 C22.814375 61.4540625 22.814375 61.4540625 22.625 62.9375 C22.41875 63.948125 22.2125 64.95875 22 66 C19.04335481 67.4783226 16.25770263 67.06032783 13 67 C12.896875 67.78375 12.79375 68.5675 12.6875 69.375 C12 72 12 72 9 74 C5.9375 74.25 5.9375 74.25 3 74 C2.01 73.01 2.01 73.01 1 72 C0.62875 72.66 0.2575 73.32 -0.125 74 C-2 76 -2 76 -4.6875 76.5625 C-9.20620435 75.79517285 -12.30756056 73.62406864 -16 71 C-16.33 71.99 -16.66 72.98 -17 74 C-22.31753555 75.20853081 -22.31753555 75.20853081 -25.25 74.3125 C-27.31103322 72.76672508 -28.0518738 71.37031549 -29 69 C-30.485 69.495 -30.485 69.495 -32 70 C-34.6875 68.875 -34.6875 68.875 -37 67 C-37 65.33333333 -37 63.66666667 -37 62 C-37.763125 61.54625 -38.52625 61.0925 -39.3125 60.625 C-43.03430114 58.37460861 -43.73133689 56.08791447 -45 52 C-44.68911632 50.32900023 -44.35919668 48.66128463 -44 47 C-44.96457834 45.64082143 -45.96854629 44.30915279 -47 43 C-48.23549559 38.53320827 -47.91115729 36.15957763 -46 32 C-46 29.16032769 -46.40267181 26.76264289 -47 24 C-46.195625 23.79375 -45.39125 23.5875 -44.5625 23.375 C-43.2940625 22.694375 -43.2940625 22.694375 -42 22 C-41.10169161 18.94727535 -41.10169161 18.94727535 -41 16 C-40.34 16 -39.68 16 -39 16 C-38.773125 15.4225 -38.54625 14.845 -38.3125 14.25 C-36.64018419 11.3831729 -34.72780269 9.86288964 -32 8 C-31.01 8 -30.02 8 -29 8 C-28.773125 7.38125 -28.54625 6.7625 -28.3125 6.125 C-26.51452118 3.21398667 -25.3145721 2.84627373 -22 2 C-19.68312991 1.95113806 -17.39985078 1.99864296 -15.0859375 2.125 C-9.62550272 1.79778293 -6.19101132 -0.84027767 0 0 Z " fill="#DE713A" transform="translate(760,372)"/>
<path d="M0 0 C1.65322266 0.01740234 1.65322266 0.01740234 3.33984375 0.03515625 C4.99693359 0.04869141 4.99693359 0.04869141 6.6875 0.0625 C7.54214844 0.07410156 8.39679688 0.08570313 9.27734375 0.09765625 C9.93734375 1.41765625 10.59734375 2.73765625 11.27734375 4.09765625 C12.92734375 4.09765625 14.57734375 4.09765625 16.27734375 4.09765625 C16.07109375 4.69578125 15.86484375 5.29390625 15.65234375 5.91015625 C14.9706246 8.38216471 14.9706246 8.38216471 17.27734375 11.09765625 C17.18453125 13.04671875 17.18453125 13.04671875 17.08984375 15.03515625 C16.96187968 17.13710593 16.96187968 17.13710593 17.27734375 19.09765625 C19.5980434 21.52181626 19.5980434 21.52181626 22.27734375 23.09765625 C22.77234375 24.08765625 22.77234375 24.08765625 23.27734375 25.09765625 C25.16499278 25.7823829 25.16499278 25.7823829 27.33984375 26.22265625 C28.07332031 26.39023437 28.80679688 26.5578125 29.5625 26.73046875 C30.12839844 26.85164063 30.69429688 26.9728125 31.27734375 27.09765625 C31.77234375 29.57265625 31.77234375 29.57265625 32.27734375 32.09765625 C33.08171875 32.22140625 33.88609375 32.34515625 34.71484375 32.47265625 C35.56046875 32.67890625 36.40609375 32.88515625 37.27734375 33.09765625 C38.80226373 36.14749621 38.51296923 38.73999315 38.27734375 42.09765625 C36.96484375 44.03515625 36.96484375 44.03515625 35.27734375 45.09765625 C34.28734375 45.09765625 33.29734375 45.09765625 32.27734375 45.09765625 C32.18453125 45.96390625 32.18453125 45.96390625 32.08984375 46.84765625 C30.93533527 50.04475666 29.06186396 51.24130945 26.27734375 53.09765625 C25.28734375 53.09765625 24.29734375 53.09765625 23.27734375 53.09765625 C23.07109375 53.65453125 22.86484375 54.21140625 22.65234375 54.78515625 C20.72733601 58.02266927 18.23883473 59.77996766 15.27734375 62.09765625 C15.93734375 62.75765625 16.59734375 63.41765625 17.27734375 64.09765625 C17.27734375 65.08765625 17.27734375 66.07765625 17.27734375 67.09765625 C18.37046875 67.20078125 19.46359375 67.30390625 20.58984375 67.41015625 C24.27734375 68.09765625 24.27734375 68.09765625 26.21484375 69.41015625 C27.27734375 71.09765625 27.27734375 71.09765625 27.27734375 75.09765625 C28.04046875 75.03578125 28.80359375 74.97390625 29.58984375 74.91015625 C32.27734375 75.09765625 32.27734375 75.09765625 34.08984375 76.28515625 C35.64425885 78.65768455 35.27734375 80.29771068 35.27734375 83.09765625 C35.79296875 83.75765625 36.30859375 84.41765625 36.83984375 85.09765625 C38.27734375 87.09765625 38.27734375 87.09765625 38.21484375 89.72265625 C37.04838074 92.67769587 36.05571074 92.79529672 33.27734375 94.09765625 C33.11234375 94.75765625 32.94734375 95.41765625 32.77734375 96.09765625 C32.27734375 98.09765625 32.27734375 98.09765625 30.56640625 99.23046875 C23.75893388 101.80940879 15.89800616 98.9174459 9.56640625 96.1328125 C8.81101563 95.79121094 8.055625 95.44960938 7.27734375 95.09765625 C5.6134233 94.42416464 3.94744743 93.7556653 2.27734375 93.09765625 C1.94734375 93.42765625 1.61734375 93.75765625 1.27734375 94.09765625 C-2.86950167 93.94117152 -5.03701232 93.74721366 -8.09765625 90.84765625 C-9.72271155 88.09756267 -10.1797165 86.20016912 -10.72265625 83.09765625 C-11.68697701 81.41009492 -12.68476044 79.74099129 -13.72265625 78.09765625 C-14.7855862 74.90886639 -14.67084645 72.97984207 -14.47265625 69.66015625 C-14.36798898 66.75074995 -14.36798898 66.75074995 -14.72265625 64.09765625 C-17.0034081 61.53730872 -17.0034081 61.53730872 -19.72265625 60.09765625 C-21.00583517 56.24811949 -20.78909262 53.1502749 -20.72265625 49.09765625 C-21.44453125 49.03578125 -22.16640625 48.97390625 -22.91015625 48.91015625 C-27.65471203 47.5395068 -30.05935161 44.09261321 -32.72265625 40.09765625 C-32.53515625 36.53515625 -32.53515625 36.53515625 -31.72265625 33.09765625 C-30.73265625 32.43765625 -29.74265625 31.77765625 -28.72265625 31.09765625 C-27.9327748 29.14380558 -27.9327748 29.14380558 -27.53515625 26.97265625 C-27.13296875 25.05453125 -27.13296875 25.05453125 -26.72265625 23.09765625 C-25.40265625 22.76765625 -24.08265625 22.43765625 -22.72265625 22.09765625 C-22.80515625 21.02515625 -22.88765625 19.95265625 -22.97265625 18.84765625 C-22.72265625 15.09765625 -22.72265625 15.09765625 -21.03515625 12.66015625 C-18.33854816 10.83812376 -16.91139174 10.74335231 -13.72265625 11.09765625 C-13.61953125 10.33453125 -13.51640625 9.57140625 -13.41015625 8.78515625 C-12.64587829 5.79752421 -12.1906521 4.88482566 -9.72265625 3.09765625 C-7.73909142 2.38357291 -5.73950188 1.71147883 -3.72265625 1.09765625 C-2.72265625 0.09765625 -2.72265625 0.09765625 0 0 Z " fill="#DE713A" transform="translate(245.72265625,347.90234375)"/>
<path d="M0 0 C1.4540625 0.86625 1.4540625 0.86625 2.9375 1.75 C4.030625 2.3275 5.12375 2.905 6.25 3.5 C8.9375 5.75 8.9375 5.75 9.9375 9.3125 C9.9375 12.75 9.9375 12.75 7.9375 15.75 C7.2775 15.75 6.6175 15.75 5.9375 15.75 C5.916875 16.3275 5.89625 16.905 5.875 17.5 C4.34194461 21.17933295 1.45351757 22.02283347 -2.0625 23.75 C-2.7225 23.75 -3.3825 23.75 -4.0625 23.75 C-4.1553125 24.6471875 -4.1553125 24.6471875 -4.25 25.5625 C-5.3861757 28.62143458 -7.23580142 29.30041099 -10.0625 30.75 C-7.34365968 31.6200289 -5.34760745 31.73767427 -2.4375 31.6875 C0.9375 31.75 0.9375 31.75 2.9375 33.75 C5.50811311 34.39767793 5.50811311 34.39767793 7.9375 34.75 C7.6075 36.73 7.2775 38.71 6.9375 40.75 C7.9275 41.08 8.9175 41.41 9.9375 41.75 C10.81038452 47.16424317 11.1323868 50.62859747 8.9375 55.75 C9.56790043 57.10085807 10.24001417 58.43252676 10.9375 59.75 C11.27710078 64.41951073 10.7157012 67.48231711 8.9375 71.75 C9.2675 72.74 9.5975 73.73 9.9375 74.75 C10.05790604 76.87250645 10.11283819 78.99911587 10.125 81.125 C10.13917969 82.24648438 10.15335938 83.36796875 10.16796875 84.5234375 C9.94115368 87.69884842 9.29140668 89.89234718 7.9375 92.75 C8.5975 92.75 9.2575 92.75 9.9375 92.75 C10.0625 95.125 10.0625 95.125 9.9375 97.75 C9.2775 98.41 8.6175 99.07 7.9375 99.75 C6.9475 99.75 5.9575 99.75 4.9375 99.75 C4.751875 100.7090625 4.751875 100.7090625 4.5625 101.6875 C4.35625 102.368125 4.15 103.04875 3.9375 103.75 C2.9475 104.245 2.9475 104.245 1.9375 104.75 C0.9475 104.09 -0.0425 103.43 -1.0625 102.75 C-2.5475 103.74 -2.5475 103.74 -4.0625 104.75 C-8.49007266 105.63866023 -12.45110677 105.67422058 -16.42578125 103.39453125 C-20.45560822 100.05721568 -23.33035502 97.08419915 -24.0625 91.75 C-23.96135053 86.78589534 -23.8571239 82.94193585 -21.0625 78.75 C-21.5575 78.21375 -22.0525 77.6775 -22.5625 77.125 C-24.50370466 74.05142595 -24.50153359 72.33544099 -24.0625 68.75 C-22.5625 65.875 -22.5625 65.875 -21.0625 63.75 C-21.5575 63.110625 -22.0525 62.47125 -22.5625 61.8125 C-24.5709233 57.7119691 -24.6963641 54.24393391 -24.0625 49.75 C-22.5625 46.6875 -22.5625 46.6875 -21.0625 44.75 C-21.7225 44.09 -22.3825 43.43 -23.0625 42.75 C-22.74050066 38.77867481 -21.22670003 36.04334787 -19.0625 32.75 C-19.64 32.70875 -20.2175 32.6675 -20.8125 32.625 C-24.27752341 31.27749089 -25.29061794 28.92716783 -27.0625 25.75 C-27.40310811 24.08480481 -27.73808396 22.41842534 -28.0625 20.75 C-29.0525 20.09 -30.0425 19.43 -31.0625 18.75 C-31.25 15.625 -31.25 15.625 -31.0625 12.75 C-27.5975 12.255 -27.5975 12.255 -24.0625 11.75 C-23.4025 9.44 -22.7425 7.13 -22.0625 4.75 C-20.94875 4.6675 -19.835 4.585 -18.6875 4.5 C-17.49125 4.2525 -16.295 4.005 -15.0625 3.75 C-13.76184079 1.81616713 -13.76184079 1.81616713 -13.0625 -0.25 C-8.39635381 -1.80538206 -4.58169881 -1.87008115 0 0 Z " fill="#DE713A" transform="translate(609.0625,342.25)"/>
<path d="M0 0 C-0.99 0.5259375 -0.99 0.5259375 -2 1.0625 C-4.34040681 2.93656989 -4.34040681 2.93656989 -4.5 6.375 C-3.93596294 10.46426872 -2.8340254 12.07741131 0 15 C-0.350625 15.556875 -0.70125 16.11375 -1.0625 16.6875 C-2.2500817 19.6168682 -1.99130348 21.02608955 -1 24 C0.4579186 25.79385992 0.4579186 25.79385992 2 27 C1.01 27.66 0.02 28.32 -1 29 C-0.72382467 30.94074861 -0.72382467 30.94074861 0 33 C0.99 33.66 1.98 34.32 3 35 C2.484375 35.515625 1.96875 36.03125 1.4375 36.5625 C-0.30993554 39.03995263 -0.30993554 39.03995263 0.0625 42.5625 C1.09081735 46.33299695 1.78555204 47.02985448 5 49 C5 49.66 5 50.32 5 51 C4.34 51 3.68 51 3 51 C1.73002064 55.50635254 1.73002064 55.50635254 3.046875 59.80078125 C4.29161056 61.26579304 5.64065712 62.64065712 7 64 C5.515 64.99 5.515 64.99 4 66 C4.27617533 67.94074861 4.27617533 67.94074861 5 70 C6.485 70.99 6.485 70.99 8 72 C7.01 72.99 7.01 72.99 6 74 C6 75.32 6 76.64 6 78 C7.0725 78.165 8.145 78.33 9.25 78.5 C11.73673851 79.18771526 12.72789338 79.57837404 14.14453125 81.7734375 C14.76286872 83.18903563 15.37870601 84.60572817 15.9921875 86.0234375 C17.67327363 89.32045139 19.67969604 90.49646613 23 92 C26.07122901 92.45752898 28.95200294 92.64443366 32 92 C33.67720401 90.64575157 33.67720401 90.64575157 35 89 C35.66 88.34 36.32 87.68 37 87 C37.21917317 89.70313576 37.32851983 91.43958382 35.9375 93.8125 C33.00731249 95.60842137 30.3527047 95.18977574 27 95 C27 95.99 27 96.98 27 98 C25.22679112 100.08159303 23.68469445 100.86279208 21.01171875 101.3984375 C15.22529481 101.8181781 12.05969572 100.23066014 7.62890625 96.60546875 C5.24998929 94.26078081 4.03237996 92.69616918 3.875 89.3125 C3.91625 88.549375 3.9575 87.78625 4 87 C3.05125 87.04125 2.1025 87.0825 1.125 87.125 C-2 87 -2 87 -4 85 C-3.814375 84.195625 -3.62875 83.39125 -3.4375 82.5625 C-3.293125 81.716875 -3.14875 80.87125 -3 80 C-4.41666667 78.41666667 -4.41666667 78.41666667 -6 77 C-6 73 -6 73 -4.5 71.25 C-4.005 70.8375 -3.51 70.425 -3 70 C-3.639375 69.79375 -4.27875 69.5875 -4.9375 69.375 C-7 68 -7 68 -7.9375 65.125 C-8 62 -8 62 -6.5625 59.625 C-6.046875 59.08875 -5.53125 58.5525 -5 58 C-5.825 57.13375 -6.65 56.2675 -7.5 55.375 C-9.58756239 52.88643693 -9.9852047 52.12822593 -10.375 48.75 C-10 46 -10 46 -9 44 C-8.34 44 -7.68 44 -7 44 C-7 43.34 -7 42.68 -7 42 C-8.32 41.34 -9.64 40.68 -11 40 C-10.835 39.401875 -10.67 38.80375 -10.5 38.1875 C-9.8885876 35.88655664 -9.8885876 35.88655664 -10 33 C-10.66 32.01 -11.32 31.02 -12 30 C-12.37569856 26.24301443 -12.1642235 25.24633524 -10 22 C-10.66 21.505 -11.32 21.01 -12 20.5 C-14.10448312 17.86939611 -14.3578457 17.15374106 -14.5 13.9375 C-14 10 -14 10 -12.125 8.3125 C-11.42375 7.879375 -10.7225 7.44625 -10 7 C-9.690625 6.175 -9.38125 5.35 -9.0625 4.5 C-7.2299165 0.18803882 -4.4492515 -1.48308383 0 0 Z " fill="#E4B458" transform="translate(22,354)"/>
<path d="M0 0 C0.99 0.33 1.98 0.66 3 1 C2.34 1 1.68 1 1 1 C0.58730522 4.37034069 0.38392219 6.96283197 2.16015625 9.953125 C4.50573171 12.80860817 6.05874419 14.69273629 9.64453125 15.86328125 C10.42183594 16.23839844 11.19914062 16.61351562 12 17 C12.75 19.4609375 12.75 19.4609375 13 22.375 C13.34207776 25.34446036 13.34207776 25.34446036 14 28 C14.86625 28.66 15.7325 29.32 16.625 30 C19 32 19 32 19.21875 34.42578125 C19.15580918 36.36383394 19.07746737 38.3014427 18.984375 40.23828125 C19.01320567 45.33410179 21.2051407 48.80771104 24 53 C24.185625 54.2375 24.185625 54.2375 24.375 55.5 C24.80352144 58.09839596 24.80352144 58.09839596 26.75 59.8125 C29.42409939 61.22383024 31.01338273 61.30631972 34 61 C34.99 60.67 35.98 60.34 37 60 C39.0234375 60.890625 39.0234375 60.890625 41.375 62.25 C47.32760802 65.41122231 53.4203463 66.73150877 60 68 C58.515 68.495 58.515 68.495 57 69 C56.87625 69.804375 56.7525 70.60875 56.625 71.4375 C56.41875 72.283125 56.2125 73.12875 56 74 C51.53763709 76.23118145 45.83730525 75.49654458 41 75 C37.93763704 73.95274748 35.1988227 72.70043123 32.33984375 71.19140625 C28.68631631 69.33109595 25.49027793 68.92751223 21.4375 68.6875 C17.27187327 68.23679285 17.27187327 68.23679285 15.0625 66.3125 C13.81412392 63.59544617 12.91123062 60.84759567 12 58 C11.195625 56.7315625 11.195625 56.7315625 10.375 55.4375 C8.23242173 50.08105431 8.77168545 44.69940763 9 39 C8.38125 38.731875 7.7625 38.46375 7.125 38.1875 C5 37 5 37 3 34 C2.8046875 31.73828125 2.8046875 31.73828125 2.875 29.3125 C2.89304688 28.50425781 2.91109375 27.69601562 2.9296875 26.86328125 C2.95289063 26.24839844 2.97609375 25.63351562 3 25 C1.35 24.67 -0.3 24.34 -2 24 C-2.33 24.66 -2.66 25.32 -3 26 C-3.10957031 25.38511719 -3.21914062 24.77023437 -3.33203125 24.13671875 C-3.56986328 22.92435547 -3.56986328 22.92435547 -3.8125 21.6875 C-3.96332031 20.88699219 -4.11414063 20.08648437 -4.26953125 19.26171875 C-5.07572236 16.76554413 -6.02052002 15.67577894 -8 14 C-7.34 13.34 -6.68 12.68 -6 12 C-5.83312552 9.41645782 -5.83312552 9.41645782 -6 7 C-5.34 7 -4.68 7 -4 7 C-3.8453125 6.1028125 -3.8453125 6.1028125 -3.6875 5.1875 C-2.91123545 2.71756736 -1.92911079 1.67748765 0 0 Z " fill="#E4B356" transform="translate(213,380)"/>
<path d="M0 0 C1.32 1.65 2.64 3.3 4 5 C3.01 5.495 3.01 5.495 2 6 C1.94577053 7.4370809 1.90710277 8.87475462 1.875 10.3125 C1.84019531 11.51326172 1.84019531 11.51326172 1.8046875 12.73828125 C1.84182678 15.28388576 1.84182678 15.28388576 4 18 C3.34 18.99 2.68 19.98 2 21 C2.34445598 25.50850182 2.34445598 25.50850182 5 29 C4.67 29.639375 4.34 30.27875 4 30.9375 C1.9782683 37.12905333 2.53517374 42.99198599 5 49 C4.484375 49.4125 3.96875 49.825 3.4375 50.25 C1.74673571 51.89081865 1.74673571 51.89081865 2.1875 54.0625 C2.93470336 56.18712526 2.93470336 56.18712526 5 58 C4.01 58.495 4.01 58.495 3 59 C2.07438463 62.39392302 1.72702824 64.32559918 3.0625 67.625 C4 70 4 70 3.125 72.3125 C2.75375 72.869375 2.3825 73.42625 2 74 C2.66 74.99 3.32 75.98 4 77 C3.34 77 2.68 77 2 77 C2 78.65 2 80.3 2 82 C2.928125 82.37125 2.928125 82.37125 3.875 82.75 C6.35068687 84.20628639 6.95125002 85.37812506 8 88 C9.98 88 11.96 88 14 88 C14.33 87.34 14.66 86.68 15 86 C15.99 86.4640625 15.99 86.4640625 17 86.9375 C20.70476015 88.24960255 24.09263991 88.60264135 28 89 C27.505 90.485 27.505 90.485 27 92 C26.34 92 25.68 92 25 92 C24.71125 92.639375 24.4225 93.27875 24.125 93.9375 C23 96 23 96 21 97 C15.62276143 97.46244252 11.04100465 97.06810447 6 95 C5.01 95.99 5.01 95.99 4 97 C0.875 96.625 0.875 96.625 -2 96 C-2.33 94.68 -2.66 93.36 -3 92 C-4.32 91.67 -5.64 91.34 -7 91 C-8.02629452 86.38167467 -8.18306917 82.58439305 -7 78 C-7 77.01 -7 76.02 -7 75 C-7.33 74.67 -7.66 74.34 -8 74 C-7.30232558 67.60465116 -7.30232558 67.60465116 -6 65 C-6.66 64.01 -7.32 63.02 -8 62 C-7.6875 60.0625 -7.6875 60.0625 -7 58 C-5.9706844 54.93532406 -5.9706844 54.93532406 -7 52 C-7.12207871 50.21140489 -7.17548448 48.41771619 -7.1875 46.625 C-7.20167969 45.66851562 -7.21585937 44.71203125 -7.23046875 43.7265625 C-6.99745572 40.96989983 -6.40920164 39.35052605 -5 37 C-5.495 36.443125 -5.99 35.88625 -6.5 35.3125 C-8.28103013 32.56674522 -8.41203933 31.21390677 -8 28 C-7.01 26.515 -7.01 26.515 -6 25 C-6.33902344 24.43667969 -6.67804688 23.87335938 -7.02734375 23.29296875 C-8.17007895 20.59905082 -8.02105279 19.17254575 -7.5625 16.3125 C-7.33977627 14.88003477 -7.14337906 13.44256887 -7 12 C-7.33 11.67 -7.66 11.34 -8 11 C-8.04063832 9.33382885 -8.042721 7.66611905 -8 6 C-6.35 5.67 -4.7 5.34 -3 5 C-3 4.01 -3 3.02 -3 2 C-2.01 1.34 -1.02 0.68 0 0 Z " fill="#E4B458" transform="translate(374,358)"/>
<path d="M0 0 C1.2065625 0.0309375 1.2065625 0.0309375 2.4375 0.0625 C3.125 3.375 3.125 3.375 3.4375 7.0625 C2.4581121 8.08269573 1.45854551 9.08399805 0.4375 10.0625 C0.66080713 13.70984979 0.82122835 15.44622835 3.4375 18.0625 C2.7775 19.0525 2.1175 20.0425 1.4375 21.0625 C1.43667465 24.64006686 1.43667465 24.64006686 2.4375 28.0625 C3.7528341 28.76401152 5.08867592 29.42775925 6.4375 30.0625 C7.18344659 31.7814204 7.92426599 33.50378773 8.59375 35.25390625 C9.94655179 38.15366194 12.06048731 39.97536691 14.4375 42.0625 C15.035625 42.619375 15.63375 43.17625 16.25 43.75 C18.7795504 45.26773024 21.25616364 45.90115314 24.125 46.5234375 C26.4375 47.0625 26.4375 47.0625 28.875 47.8515625 C36.60034712 50.31171768 44.38131116 51.01138136 52.4375 50.0625 C55.1618647 48.62854462 55.1618647 48.62854462 57.4375 47.0625 C60.25 46.875 60.25 46.875 62.4375 47.0625 C62.4375 49.0625 62.4375 49.0625 61.15234375 50.53515625 C56.90952704 54.33037911 54.22742714 55.52639564 48.4375 56.0625 C47.68726563 56.55492187 46.93703125 57.04734375 46.1640625 57.5546875 C40.04015621 60.94126032 31.46996518 59.75852918 24.8125 58.23046875 C21.65305481 57.25411242 18.54782219 56.18411411 15.4375 55.0625 C14.08733222 54.67334795 12.73382877 54.29523836 11.375 53.9375 C4.4483932 51.87425542 1.44360103 48.07165154 -2.5625 42.0625 C-2.5625 40.7425 -2.5625 39.4225 -2.5625 38.0625 C-3.490625 37.876875 -3.490625 37.876875 -4.4375 37.6875 C-6.5625 37.0625 -6.5625 37.0625 -8.5625 35.0625 C-9.375 32.6875 -9.375 32.6875 -9.5625 30.0625 C-8.125 27.75 -8.125 27.75 -6.5625 26.0625 C-7.0575 25.505625 -7.5525 24.94875 -8.0625 24.375 C-9.8618237 21.60104262 -10.04971029 20.31056861 -9.5625 17.0625 C-9.046875 16.381875 -8.53125 15.70125 -8 15 C-7.525625 14.360625 -7.05125 13.72125 -6.5625 13.0625 C-6.96188767 10.96428785 -6.96188767 10.96428785 -7.5625 9.0625 C-6.9025 8.4025 -6.2425 7.7425 -5.5625 7.0625 C-4.87149447 5.07077818 -4.20347297 3.07088196 -3.5625 1.0625 C-2.5625 0.0625 -2.5625 0.0625 0 0 Z " fill="#E4B459" transform="translate(288.5625,393.9375)"/>
<path d="M0 0 C0 1.98 0 3.96 0 6 C-1.65 6.33 -3.3 6.66 -5 7 C-4.835 7.763125 -4.67 8.52625 -4.5 9.3125 C-3.83470547 12.88845811 -3.94299692 14.8321576 -5.125 18.3125 C-6.10727816 22.4521008 -5.76932618 24.19594871 -4 28 C-3.34 28.66 -2.68 29.32 -2 30 C-2.20625 30.70125 -2.4125 31.4025 -2.625 32.125 C-3.17670011 36.35470086 -1.49871456 39.60084776 1 43 C3.05222105 44.24869852 3.05222105 44.24869852 5 45 C5 46.65 5 48.3 5 50 C8.86763446 51.87543354 8.86763446 51.87543354 13 51 C13.33 52.65 13.66 54.3 14 56 C17.98677336 56.7306539 17.98677336 56.7306539 22 57 C24.02977977 55.72780266 24.02977977 55.72780266 25 54 C29 56 29 56 30.875 57.125 C33.78116091 58.32165449 35.88988379 58.39703611 39 58 C40.91256712 56.11922127 40.91256712 56.11922127 42 54 C42.66 54.66 43.32 55.32 44 56 C48.05261287 56.34490322 49.54754176 56.30163882 53 54 C53.72382467 51.94074861 53.72382467 51.94074861 54 50 C55.98 50 57.96 50 60 50 C60 50.33 60 50.66 60 51 C58.35 51 56.7 51 55 51 C54.9175 51.763125 54.835 52.52625 54.75 53.3125 C53.83456067 56.59282427 52.91528755 57.3341214 50 59 C49.319375 59.144375 48.63875 59.28875 47.9375 59.4375 C45.80071694 59.82445577 45.80071694 59.82445577 44.75 62 C42.70182766 64.34076839 41.92909757 64.4329982 38.9375 64.875 C37.638125 64.91625 36.33875 64.9575 35 65 C34.34 64.34 33.68 63.68 33 63 C32.62875 63.66 32.2575 64.32 31.875 65 C30 67 30 67 27.1875 67.5 C23.30465743 66.89092666 21.09776684 65.3602033 18 63 C17.443125 63.309375 16.88625 63.61875 16.3125 63.9375 C13.72403904 65.12679288 11.85946249 65.86051402 9 66 C6.30441552 64.22336478 4.45357777 62.90715555 3 60 C0.67843403 59.59270772 -1.6568787 59.25561323 -4 59 C-4.0825 57.88625 -4.165 56.7725 -4.25 55.625 C-4.4975 54.42875 -4.745 53.2325 -5 52 C-6.83284443 50.87483915 -6.83284443 50.87483915 -9 50 C-12.45068767 45.76058371 -13.56604691 42.42441362 -14 37 C-13.34 37 -12.68 37 -12 37 C-12 34.69 -12 32.38 -12 30 C-13.65 29.67 -15.3 29.34 -17 29 C-17 28.01 -17 27.02 -17 26 C-16.34 26 -15.68 26 -15 26 C-14.33646106 22.8297584 -13.90847282 20.44746621 -14.5625 17.25 C-14.706875 16.5075 -14.85125 15.765 -15 15 C-14.34 14.34 -13.68 13.68 -13 13 C-12.01 13 -11.02 13 -10 13 C-9.90589844 12.26394531 -9.81179688 11.52789062 -9.71484375 10.76953125 C-8.89467004 7.59191836 -7.75090067 6.10338515 -5.5625 3.6875 C-4.94503906 2.99011719 -4.32757812 2.29273438 -3.69140625 1.57421875 C-2 0 -2 0 0 0 Z " fill="#E4B358" transform="translate(719,389)"/>
<path d="M0 0 C1 2 1 2 1.375 5.4375 C1.62073743 8.95415519 1.62073743 8.95415519 3.625 10.5 C4.07875 10.995 4.5325 11.49 5 12 C4.70764733 14.33882138 4.37400786 16.67284 4 19 C5.83333333 22.16666667 5.83333333 22.16666667 9 24 C8.67 25.32 8.34 26.64 8 28 C8.99 28.66 9.98 29.32 11 30 C10.67 30.66 10.34 31.32 10 32 C10.03162438 36.09535684 10.34901845 39.84598726 12.375 43.4375 C14.12054659 45.20809306 14.12054659 45.20809306 17 47 C16.67 47.33 16.34 47.66 16 48 C15.95936168 49.66617115 15.957279 51.33388095 16 53 C16.7425 53.165 17.485 53.33 18.25 53.5 C21.81865473 55.44653894 22.41084654 57.50178541 24.04296875 61.09765625 C25.92566062 64.83998662 28.43603106 65.79393443 32.25 67.1875 C33.1575 67.455625 34.065 67.72375 35 68 C35 69.98 35 71.96 35 74 C33.824375 73.690625 33.824375 73.690625 32.625 73.375 C31.75875 73.25125 30.8925 73.1275 30 73 C29.34 73.66 28.68 74.32 28 75 C23.05500863 75.46650862 19.94808458 75.11061209 16 72 C16 71.34 16 70.68 16 70 C15.34 70 14.68 70 14 70 C13.67 67.69 13.34 65.38 13 63 C12.030625 62.855625 11.06125 62.71125 10.0625 62.5625 C7 62 7 62 6 61 C5.875 58.5 5.875 58.5 6 56 C6.33 55.67 6.66 55.34 7 55 C6.21625 54.2575 5.4325 53.515 4.625 52.75 C1.10173574 49.05896125 0.07730396 47.4945433 -0.1875 42.375 C0 39 0 39 1 37 C0.01 36.67 -0.98 36.34 -2 36 C-1.67 34.68 -1.34 33.36 -1 32 C-1.63421875 31.77570313 -2.2684375 31.55140625 -2.921875 31.3203125 C-5 30 -5 30 -5.828125 27.6171875 C-5.96734375 26.71226562 -6.1065625 25.80734375 -6.25 24.875 C-6.39953125 23.96492188 -6.5490625 23.05484375 -6.703125 22.1171875 C-6.80109375 21.41851562 -6.8990625 20.71984375 -7 20 C-7.99 19.67 -8.98 19.34 -10 19 C-9.484375 18.443125 -8.96875 17.88625 -8.4375 17.3125 C-6.73610753 15.08015067 -6.73610753 15.08015067 -7.1875 12.375 C-7.85676551 9.84979635 -7.85676551 9.84979635 -10 8 C-8.68 7.67 -7.36 7.34 -6 7 C-5.938125 6.401875 -5.87625 5.80375 -5.8125 5.1875 C-4.6763243 2.12856542 -2.82669858 1.44958901 0 0 Z " fill="#E4B458" transform="translate(465,379)"/>
<path d="M0 0 C1.4540625 0.86625 1.4540625 0.86625 2.9375 1.75 C4.030625 2.3275 5.12375 2.905 6.25 3.5 C8.9375 5.75 8.9375 5.75 9.9375 9.3125 C9.9375 12.75 9.9375 12.75 7.9375 15.75 C7.2775 15.75 6.6175 15.75 5.9375 15.75 C5.916875 16.3275 5.89625 16.905 5.875 17.5 C4.34194461 21.17933295 1.45351757 22.02283347 -2.0625 23.75 C-2.7225 23.75 -3.3825 23.75 -4.0625 23.75 C-4.10375 24.348125 -4.145 24.94625 -4.1875 25.5625 C-5.0625 27.75 -5.0625 27.75 -7.75 29.375 C-11.0625 30.75 -11.0625 30.75 -14.3125 31.8125 C-17.16628335 32.55970412 -17.16628335 32.55970412 -19.0625 34.75 C-19.0625 34.09 -19.0625 33.43 -19.0625 32.75 C-19.64 32.70875 -20.2175 32.6675 -20.8125 32.625 C-24.27752341 31.27749089 -25.29061794 28.92716783 -27.0625 25.75 C-27.40310811 24.08480481 -27.73808396 22.41842534 -28.0625 20.75 C-29.0525 20.09 -30.0425 19.43 -31.0625 18.75 C-31.25 15.625 -31.25 15.625 -31.0625 12.75 C-27.5975 12.255 -27.5975 12.255 -24.0625 11.75 C-23.4025 9.44 -22.7425 7.13 -22.0625 4.75 C-20.94875 4.6675 -19.835 4.585 -18.6875 4.5 C-17.49125 4.2525 -16.295 4.005 -15.0625 3.75 C-13.76184079 1.81616713 -13.76184079 1.81616713 -13.0625 -0.25 C-8.39635381 -1.80538206 -4.58169881 -1.87008115 0 0 Z " fill="#DE723B" transform="translate(609.0625,342.25)"/>
<path d="M0 0 C0.66 0.33 1.32 0.66 2 1 C1.505 1.4125 1.01 1.825 0.5 2.25 C-1.43386092 4.12202338 -1.43386092 4.12202338 -1 8 C-0.34 8.66 0.32 9.32 1 10 C0.505 10.639375 0.01 11.27875 -0.5 11.9375 C-2.51583458 16.05316227 -2.61706832 19.4906546 -2 24 C-0.65253476 27.45346148 -0.65253476 27.45346148 1 30 C0.2575 30.804375 0.2575 30.804375 -0.5 31.625 C-2.44120466 34.69857405 -2.43903359 36.41455901 -2 40 C-0.61114752 42.81780534 -0.61114752 42.81780534 1 45 C0.34 45.66 -0.32 46.32 -1 47 C-2.22118878 52.47565293 -2.74320948 57.97078262 0 63 C2.68506846 66.3875573 5.2181629 68.66333953 9.54296875 69.48046875 C14.4785921 69.63356785 17.17764598 69.29513278 21 66 C21 66.99 21 67.98 21 69 C21.99 69.495 21.99 69.495 23 70 C22.34 70.66 21.68 71.32 21 72 C19.68 72 18.36 72 17 72 C16.67 73.65 16.34 75.3 16 77 C15.05125 76.79375 14.1025 76.5875 13.125 76.375 C12.09375 76.25125 11.0625 76.1275 10 76 C9.01 76.99 9.01 76.99 8 78 C5.7578125 78.30078125 5.7578125 78.30078125 3.125 78.3125 C2.26132812 78.32925781 1.39765625 78.34601563 0.5078125 78.36328125 C-2.48562909 77.92965186 -3.8636427 77.12145248 -6 75 C-6 74.01 -6 73.02 -6 72 C-6.928125 71.9071875 -6.928125 71.9071875 -7.875 71.8125 C-10 71 -10 71 -11.25 69.0625 C-12.30678605 64.74729031 -12.53182728 60.41885899 -12 56 C-11.34 55.34 -10.68 54.68 -10 54 C-10.35355436 51.73725212 -10.97544426 50.04911148 -12 48 C-12.46280992 41.75206612 -12.46280992 41.75206612 -10.5 38.5625 C-10.005 38.046875 -9.51 37.53125 -9 37 C-9.48726562 36.45214844 -9.97453125 35.90429688 -10.4765625 35.33984375 C-13.13204254 31.26129876 -12.56089751 26.70452785 -12 22 C-11.0436126 20.30792999 -10.05589069 18.63183107 -9 17 C-9.65061095 15.32700041 -10.32033324 13.66140763 -11 12 C-10.89755856 8.96261127 -10.48339055 5.99832789 -10 3 C-9.67 3 -9.34 3 -9 3 C-9 4.65 -9 6.3 -9 8 C-8.01 8 -7.02 8 -6 8 C-5.938125 7.4225 -5.87625 6.845 -5.8125 6.25 C-4.67972699 3.11309013 -2.65802405 1.90832496 0 0 Z " fill="#E4B357" transform="translate(588,377)"/>
<path d="M0 0 C0.33 0.66 0.66 1.32 1 2 C0.34 2 -0.32 2 -1 2 C-1.02707139 4.24993359 -1.04642829 6.49996095 -1.0625 8.75 C-1.07410156 10.00296875 -1.08570313 11.2559375 -1.09765625 12.546875 C-1.02021027 15.28536501 -0.82780815 17.41880293 0 20 C0.639375 20.0825 1.27875 20.165 1.9375 20.25 C4.65350375 20.91514378 6.73972018 21.75489882 9.25 22.9375 C18.4845763 27.12669521 26.23314593 27.56791444 36 25 C36.66 25.99 37.32 26.98 38 28 C39.98 27.67 41.96 27.34 44 27 C44.495 29.475 44.495 29.475 45 32 C45.99 31.67 46.98 31.34 48 31 C48.33 30.34 48.66 29.68 49 29 C49.928125 29.4640625 49.928125 29.4640625 50.875 29.9375 C55.18802294 31.4039278 59.4759996 31.66619026 64 32 C63.34 32.99 62.68 33.98 62 35 C61.34 35 60.68 35 60 35 C59.67 35.99 59.34 36.98 59 38 C54.55299615 40.96466923 50.21871437 40.52568072 45 40 C41.8125 38.5 41.8125 38.5 40 37 C39.67 37.99 39.34 38.98 39 40 C35.125 38.25 35.125 38.25 34 36 C33.21625 36.20625 32.4325 36.4125 31.625 36.625 C30.75875 36.74875 29.8925 36.8725 29 37 C28.34 36.34 27.68 35.68 27 35 C24.20856061 34.9851677 21.47247945 35.06089712 18.6875 35.1875 C9.98623657 35.40826925 3.89495478 33.77038361 -4 30 C-4.91523438 29.67773438 -5.83046875 29.35546875 -6.7734375 29.0234375 C-9 28 -9 28 -10.3125 25 C-11.40259069 20.11515963 -12.2841256 13.56825121 -10 9 C-9.34 9 -8.68 9 -8 9 C-7.9175 8.4225 -7.835 7.845 -7.75 7.25 C-6.7766189 4.3298567 -5.32386725 2.98212207 -3 1 C-2.01 0.67 -1.02 0.34 0 0 Z " fill="#E4B356" transform="translate(137,415)"/>
<path d="M0 0 C1.11375 1.175625 1.11375 1.175625 2.25 2.375 C4.54433318 4.56504531 6.12158858 5.82731386 9 7 C8.83757812 7.54785156 8.67515625 8.09570312 8.5078125 8.66015625 C7.93210839 11.31282363 7.86747311 13.72405462 7.875 16.4375 C7.87242187 17.36433594 7.86984375 18.29117187 7.8671875 19.24609375 C7.92844275 22.0145485 7.92844275 22.0145485 8.5703125 24.73046875 C9 27 9 27 8 28.875 C6.50303229 32.05605637 7.35277233 34.63441612 8 38 C8.99 38 9.98 38 11 38 C11.185625 38.78375 11.37125 39.5675 11.5625 40.375 C12.82641927 43.33305969 12.82641927 43.33305969 16.3125 44.375 C19.71978222 44.95250546 21.73873316 44.98826268 25 44 C25 44.66 25 45.32 25 46 C27.31 46.33 29.62 46.66 32 47 C31.01 47.33 30.02 47.66 29 48 C28.9175 48.78375 28.835 49.5675 28.75 50.375 C28 53 28 53 26.3125 54.3125 C23.35603507 55.19144903 21.07188237 55.31998775 18 55 C15.625 53.5 15.625 53.5 14 52 C13.01 52.495 13.01 52.495 12 53 C5.70915033 53.45751634 5.70915033 53.45751634 3.0625 51.75 C2 50 2 50 2 46 C1.360625 45.690625 0.72125 45.38125 0.0625 45.0625 C-2 44 -2 44 -3 43 C-2.64112641 39.82994998 -2.20808709 36.76992223 -1.375 33.6875 C-0.79030774 31.89389066 -0.79030774 31.89389066 -2 30 C-2.12271508 27.85676694 -2.17553395 25.70920998 -2.1875 23.5625 C-2.20167969 22.40878906 -2.21585937 21.25507813 -2.23046875 20.06640625 C-2 17 -2 17 0 14 C-1.65 13.67 -3.3 13.34 -5 13 C-6.7393617 7.78191489 -6.7393617 7.78191489 -7 5 C-4.89108253 1.95378588 -3.51040834 1.17013611 0 0 Z " fill="#E4B356" transform="translate(417,399)"/>
<path d="M0 0 C2.74277578 3.19990508 4.6302836 6.00499382 6 10 C7.0725 10.0825 8.145 10.165 9.25 10.25 C13.2738451 11.05476902 14.48169253 11.87729874 17 15 C18.32 13.68 19.64 12.36 21 11 C22.01707031 11.433125 22.01707031 11.433125 23.0546875 11.875 C30.54464683 14.86268461 37.10753653 16.42696851 45 14.125 C47.14043225 13.03932103 47.14043225 13.03932103 49 11 C51.475 11.99 51.475 11.99 54 13 C53.67 13.66 53.34 14.32 53 15 C51.68 15 50.36 15 49 15 C48.855625 15.804375 48.71125 16.60875 48.5625 17.4375 C48 20 48 20 47 21 C45.00047242 21.04346799 42.99960012 21.039992 41 21 C37.97932209 20.70591415 37.97932209 20.70591415 35.9375 22.5 C30.67973603 25.18481565 25.49194884 24.72681841 19.90625 23.09765625 C17.23728709 22.13118901 14.6112978 21.11203556 12 20 C11.54882812 20.49886719 11.09765625 20.99773437 10.6328125 21.51171875 C10.09398437 22.00285156 9.55515625 22.49398438 9 23 C6.875 22.8125 6.875 22.8125 5 22 C4.67 21.34 4.34 20.68 4 20 C2.9171875 20.12375 2.9171875 20.12375 1.8125 20.25 C-1.97456059 19.91337239 -3.36766842 18.70347568 -6 16 C-7.63876146 12.33229577 -8.55778206 9.01603083 -8 5 C-5 3 -5 3 -2 3 C-2 2.34 -2 1.68 -2 1 C-1.34 0.67 -0.68 0.34 0 0 Z " fill="#E4B458" transform="translate(637,431)"/>
<path d="M0 0 C0.8971875 0.928125 0.8971875 0.928125 1.8125 1.875 C4.00811144 4.13676954 4.00811144 4.13676954 7 6 C6.34 6 5.68 6 5 6 C5.33 7.65 5.66 9.3 6 11 C6.99 11.33 7.98 11.66 9 12 C9.7734375 13.92578125 9.7734375 13.92578125 10.375 16.3125 C11.67344647 20.5817376 12.97961678 22.74466307 17 25 C18.32 25 19.64 25 21 25 C21.66 27.31 22.32 29.62 23 32 C23.66 32 24.32 32 25 32 C25.66 30.35 26.32 28.7 27 27 C27.391875 27.474375 27.78375 27.94875 28.1875 28.4375 C30.40808374 30.35179633 32.13375709 30.61266988 35 31 C35 31.33 35 31.66 35 32 C33.35 32 31.7 32 30 32 C29.87625 32.78375 29.7525 33.5675 29.625 34.375 C29 37 29 37 27 39 C24 39.25 24 39.25 21 39 C20.34 38.34 19.68 37.68 19 37 C18.34 37.99 17.68 38.98 17 40 C15.35 39.67 13.7 39.34 12 39 C12 37.02 12 35.04 12 33 C10.948125 32.95875 9.89625 32.9175 8.8125 32.875 C5 32 5 32 2.0625 29.3125 C-0.14848467 25.76152463 -0.48665196 24.08787651 0 20 C-0.763125 19.979375 -1.52625 19.95875 -2.3125 19.9375 C-5 19 -5 19 -6.8125 15.4375 C-7.204375 14.303125 -7.59625 13.16875 -8 12 C-7.236875 11.319375 -6.47375 10.63875 -5.6875 9.9375 C-2.67156669 6.64101475 -1.54120983 4.13693165 0 0 Z " fill="#E4B45A" transform="translate(73,416)"/>
<path d="M0 0 C0.99 0.33 1.98 0.66 3 1 C2.01 2.485 2.01 2.485 1 4 C-0.13263421 11.86309522 0.54605065 17.81219974 5.19921875 24.29296875 C7.30825568 26.29220766 9.26131104 27.09021406 12 28 C12 29.32 12 30.64 12 32 C12.928125 31.773125 13.85625 31.54625 14.8125 31.3125 C16.3903125 31.1578125 16.3903125 31.1578125 18 31 C18.63421875 31.69609375 18.63421875 31.69609375 19.28125 32.40625 C21.82954574 34.76921514 24.28962372 34.75014959 27.6875 35.1875 C28.86699219 35.34605469 30.04648437 35.50460937 31.26171875 35.66796875 C32.16535156 35.77753906 33.06898438 35.88710938 34 36 C33.67 37.32 33.34 38.64 33 40 C32.12988281 39.85691406 32.12988281 39.85691406 31.2421875 39.7109375 C26.23911581 39.00093063 22.75977038 38.92522829 18 41 C18 40.34 18 39.68 18 39 C10.43592467 38.79410279 10.43592467 38.79410279 3 40 C2.9175 39.38125 2.835 38.7625 2.75 38.125 C2.22229055 35.84255974 2.22229055 35.84255974 0.15234375 35.0859375 C-2.26694582 33.8653159 -3.47329652 32.57995897 -5.1875 30.5 C-5.69667969 29.8915625 -6.20585938 29.283125 -6.73046875 28.65625 C-10.37589303 23.9003734 -9.51967074 17.71637811 -9 12 C-7.97667487 9.27921611 -7.05999041 8.12057836 -5 6 C-4.34 6 -3.68 6 -3 6 C-2.814375 4.7934375 -2.814375 4.7934375 -2.625 3.5625 C-2.41875 2.716875 -2.2125 1.87125 -2 1 C-1.34 0.67 -0.68 0.34 0 0 Z " fill="#E4B255" transform="translate(636,385)"/>
<path d="M0 0 C0.99 0 1.98 0 3 0 C6.30741729 3.85228083 8.23213733 8.00889262 9 13 C10.88279585 18.35202149 10.88279585 18.35202149 15 22 C15.33 22.99 15.66 23.98 16 25 C19.62617803 27.7654186 23.90961062 27.22469092 28.25 27.125 C28.99507812 27.11597656 29.74015625 27.10695313 30.5078125 27.09765625 C32.33868059 27.07418358 34.16938238 27.03831525 36 27 C31.25 31 31.25 31 29 31 C28.01 33.475 28.01 33.475 27 36 C25.576875 35.7215625 25.576875 35.7215625 24.125 35.4375 C21.10131207 34.71313368 21.10131207 34.71313368 19 36 C13.75633055 36.34384718 10.20782863 36.55035541 6 33 C6 32.01 6 31.02 6 30 C5.38125 29.731875 4.7625 29.46375 4.125 29.1875 C2 28 2 28 0 25 C-0.35913751 22.9757704 -0.50102988 20.9864056 -0.65625 18.9375 C-0.9230571 16.68119395 -0.9230571 16.68119395 -3 14 C-2.35891863 12.32332564 -1.68528045 10.65910004 -1 9 C-0.53279633 6.01090122 -0.24955919 3.01441233 0 0 Z " fill="#E4B356" transform="translate(519,416)"/>
<path d="M0 0 C1.96301592 3.50538557 2.95902388 7.13351728 4 11 C6.64 11 9.28 11 12 11 C12 11.66 12 12.32 12 13 C16.67934407 13.36077453 16.67934407 13.36077453 20.9375 11.8125 C24.11570376 10.56048034 26.34887569 11.99679089 29.390625 13.2734375 C29.92171875 13.51320313 30.4528125 13.75296875 31 14 C30.67 15.32 30.34 16.64 30 18 C28.948125 17.95875 27.89625 17.9175 26.8125 17.875 C22.48993516 18.01672344 19.78863745 19.10568127 16 21 C15.01 20.67 14.02 20.34 13 20 C12.67 20.33 12.34 20.66 12 21 C7.82281597 21.16066092 4.06242059 20.96215224 0 20 C-0.886875 19.855625 -1.77375 19.71125 -2.6875 19.5625 C-5 19 -5 19 -7 17 C-7.703125 14.6875 -7.703125 14.6875 -8.25 12 C-8.53617188 10.6696875 -8.53617188 10.6696875 -8.828125 9.3125 C-8.88484375 8.549375 -8.9415625 7.78625 -9 7 C-8.34 6.34 -7.68 5.68 -7 5 C-5.68 5 -4.36 5 -3 5 C-2.814375 4.0409375 -2.814375 4.0409375 -2.625 3.0625 C-2.41875 2.381875 -2.2125 1.70125 -2 1 C-1.34 0.67 -0.68 0.34 0 0 Z " fill="#E4B257" transform="translate(140,383)"/>
<path d="M0 0 C1 2 1 2 1.4375 4.5625 C1.623125 5.366875 1.80875 6.17125 2 7 C2.66 7.33 3.32 7.66 4 8 C4.78125 9.99609375 4.78125 9.99609375 5.5 12.4375 C6.57316512 16.09382035 6.57316512 16.09382035 9 19 C11.5 19.33333333 11.5 19.33333333 14 19 C14.66 18.34 15.32 17.68 16 17 C17.32 17.66 18.64 18.32 20 19 C19.34 19 18.68 19 18 19 C17.95875 19.598125 17.9175 20.19625 17.875 20.8125 C17 23 17 23 14.3125 24.625 C11 26 11 26 7.75 27.0625 C4.89621665 27.80970412 4.89621665 27.80970412 3 30 C3 29.34 3 28.68 3 28 C2.4225 27.95875 1.845 27.9175 1.25 27.875 C-2.21502341 26.52749089 -3.22811794 24.17716783 -5 21 C-5.34060811 19.33480481 -5.67558396 17.66842534 -6 16 C-6.99 15.34 -7.98 14.68 -9 14 C-9.1875 10.875 -9.1875 10.875 -9 8 C-5.535 7.505 -5.535 7.505 -2 7 C-1.34 4.69 -0.68 2.38 0 0 Z " fill="#E4B458" transform="translate(587,347)"/>
<path d="M0 0 C0.54527344 0.28875 1.09054687 0.5775 1.65234375 0.875 C7.43222369 3.72047936 11.57567502 4.40789365 18 4 C18 4.66 18 5.32 18 6 C20.97 6 23.94 6 27 6 C25.1875 8.5 25.1875 8.5 23 11 C22.01 11 21.02 11 20 11 C19.34 12.32 18.68 13.64 18 15 C15.66705225 15.04241723 13.33297433 15.04092937 11 15 C10.67 14.67 10.34 14.34 10 14 C6.74002824 13.49986486 3.47250568 13.09851694 0.19921875 12.6953125 C-3.05833436 11.98732171 -4.72274204 11.41782944 -7 9 C-7 7.68 -7 6.36 -7 5 C-5.5459375 4.5978125 -5.5459375 4.5978125 -4.0625 4.1875 C-3.051875 3.795625 -2.04125 3.40375 -1 3 C-0.67 2.01 -0.34 1.02 0 0 Z " fill="#E4B257" transform="translate(331,396)"/>
<path d="M0 0 C0.33 0 0.66 0 1 0 C1.33 1.98 1.66 3.96 2 6 C1.195625 6.2475 0.39125 6.495 -0.4375 6.75 C-3.08855196 7.74405226 -3.08855196 7.74405226 -4.0625 9.875 C-4.21665306 12.22616748 -4.21665306 12.22616748 -2.0625 14.25 C-1.381875 14.8275 -0.70125 15.405 0 16 C-0.47050781 16.55171875 -0.94101563 17.1034375 -1.42578125 17.671875 C-3.1802113 20.26651597 -3.66258637 22.18127415 -4.1875 25.25 C-4.34605469 26.14203125 -4.50460938 27.0340625 -4.66796875 27.953125 C-4.77753906 28.62859375 -4.88710937 29.3040625 -5 30 C-5.66 30 -6.32 30 -7 30 C-7.33 28.35 -7.66 26.7 -8 25 C-8.969375 24.7525 -9.93875 24.505 -10.9375 24.25 C-14 23 -14 23 -15 21.125 C-15 18.46184015 -14.5276596 17.18237085 -13 15 C-10.875 13.75 -10.875 13.75 -9 13 C-9.04125 12.05125 -9.0825 11.1025 -9.125 10.125 C-9 7 -9 7 -7 5 C-3.375 4.875 -3.375 4.875 0 5 C0 3.35 0 1.7 0 0 Z " fill="#E5B35D" transform="translate(96,355)"/>
<path d="M0 0 C0.804375 0.495 0.804375 0.495 1.625 1 C4.62841126 2.26459422 6.76034444 2.26446168 10 2 C11.175625 1.443125 11.175625 1.443125 12.375 0.875 C16.34568037 -0.44856012 19.04084667 0.79212271 23 2 C22.01 2.495 22.01 2.495 21 3 C21 3.66 21 4.32 21 5 C20.05125 5.28875 19.1025 5.5775 18.125 5.875 C14.94788422 6.76825109 14.94788422 6.76825109 13 9 C12.34 8.67 11.68 8.34 11 8 C5.46867349 7.71874611 1.24200843 8.25266386 -4 10 C-4.99 8.02 -5.98 6.04 -7 4 C-6.030625 3.525625 -5.06125 3.05125 -4.0625 2.5625 C-1.19522563 1.29806053 -1.19522563 1.29806053 0 0 Z " fill="#E3B053" transform="translate(758,416)"/>
<path d="M0 0 C1.95803507 -0.05389087 3.91648909 -0.09274217 5.875 -0.125 C7.51082031 -0.15980469 7.51082031 -0.15980469 9.1796875 -0.1953125 C12 0 12 0 14 2 C16.32275177 2.40047444 18.65739357 2.7397104 21 3 C20.25 4.9375 20.25 4.9375 19 7 C16.9375 7.8125 16.9375 7.8125 15 8 C14.67 7.67 14.34 7.34 14 7 C12.00047242 6.95653201 9.99960012 6.960008 8 7 C4.00095031 7 2.19799578 5.27413033 -1 3 C-0.67 2.01 -0.34 1.02 0 0 Z " fill="#E4AF57" transform="translate(670,394)"/>
<path d="M0 0 C0.33 0.99 0.66 1.98 1 3 C-0.98 3.99 -0.98 3.99 -3 5 C-3 7.31 -3 9.62 -3 12 C-3.99 12 -4.98 12 -6 12 C-6 12.66 -6 13.32 -6 14 C-6.94875 14.2475 -7.8975 14.495 -8.875 14.75 C-12.08693191 15.6857077 -12.08693191 15.6857077 -13.375 18.125 C-13.58125 18.74375 -13.7875 19.3625 -14 20 C-13.67 17.36 -13.34 14.72 -13 12 C-11.68 11.67 -10.36 11.34 -9 11 C-9.12375 9.39125 -9.12375 9.39125 -9.25 7.75 C-9 4 -9 4 -7.3125 1.5625 C-4.61589191 -0.25953249 -3.18873549 -0.35430394 0 0 Z " fill="#E4B15A" transform="translate(232,359)"/>
<path d="M0 0 C0.33 0 0.66 0 1 0 C1.25 2.75 1.25 2.75 1 6 C-0.33333333 7.33333333 -1.66666667 8.66666667 -3 10 C-3.80765878 13.64721696 -3.80765878 13.64721696 -4 17 C-5.65 17.33 -7.3 17.66 -9 18 C-9.66 16.68 -10.32 15.36 -11 14 C-10.34 14 -9.68 14 -9 14 C-9.0825 13.113125 -9.165 12.22625 -9.25 11.3125 C-8.94097242 7.21788459 -7.95769094 5.79781575 -5 3 C-2.25 2.1875 -2.25 2.1875 0 2 C0 1.34 0 0.68 0 0 Z " fill="#E5B35E" transform="translate(549,382)"/>
<path d="M0 0 C2.3125 -0.3125 2.3125 -0.3125 5 0 C7.24243223 2.86103423 8 4.34076304 8 8 C4.25 10 4.25 10 2 10 C1.67 10.66 1.34 11.32 1 12 C-0.32 11.34 -1.64 10.68 -3 10 C-3 6.13304322 -1.58090029 3.4911548 0 0 Z " fill="#E3AF53" transform="translate(749,392)"/>
<path d="M0 0 C0 0.66 0 1.32 0 2 C0.66 2 1.32 2 2 2 C1.01 4.97 0.02 7.94 -1 11 C-4.59547361 9.2022632 -7.78810967 7.40891775 -11 5 C-11 4.01 -11 3.02 -11 2 C-9.5422647 1.664061 -8.08378894 1.33133376 -6.625 1 C-5.40683594 0.7215625 -5.40683594 0.7215625 -4.1640625 0.4375 C-2 0 -2 0 0 0 Z " fill="#E3AD53" transform="translate(174,416)"/>
<path d="M0 0 C1.40742022 2.81484045 0.66652164 4.56936113 0.0625 7.625 C-0.13214844 8.62789063 -0.32679688 9.63078125 -0.52734375 10.6640625 C-0.76130859 11.82035156 -0.76130859 11.82035156 -1 13 C-2.65 13.33 -4.3 13.66 -6 14 C-6.66 12.02 -7.32 10.04 -8 8 C-6.625 6.5 -6.625 6.5 -5 5 C-4.34 5 -3.68 5 -3 5 C-2.690625 4.360625 -2.38125 3.72125 -2.0625 3.0625 C-1 1 -1 1 0 0 Z " fill="#E4AE55" transform="translate(507,385)"/>
<path d="M0 0 C0.66 0 1.32 0 2 0 C2.66 1.32 3.32 2.64 4 4 C2.35 5.65 0.7 7.3 -1 9 C-2.32 7.35 -3.64 5.7 -5 4 C-4.0409375 3.8453125 -4.0409375 3.8453125 -3.0625 3.6875 C-2.381875 3.460625 -1.70125 3.23375 -1 3 C-0.67 2.01 -0.34 1.02 0 0 Z M-5 9 C-4.01 9.33 -3.02 9.66 -2 10 C-2.66 10.66 -3.32 11.32 -4 12 C-4.33 11.01 -4.66 10.02 -5 9 Z " fill="#F2E3C9" transform="translate(576,391)"/>
<path d="M0 0 C-0.66 0.66 -1.32 1.32 -2 2 C-2.99 2 -3.98 2 -5 2 C-5.28875 2.639375 -5.5775 3.27875 -5.875 3.9375 C-7 6 -7 6 -9 7 C-9 4.69 -9 2.38 -9 0 C-3.375 -1.125 -3.375 -1.125 0 0 Z " fill="#E4AE56" transform="translate(274,399)"/>
<path d="M0 0 C0.99 0.33 1.98 0.66 3 1 C3 1.66 3 2.32 3 3 C0.03 3.66 -2.94 4.32 -6 5 C-6 4.34 -6 3.68 -6 3 C-7.32 2.67 -8.64 2.34 -10 2 C-7.06156148 0.53078074 -4.24602179 1 -1 1 C-0.67 0.67 -0.34 0.34 0 0 Z " fill="#F2E1C5" transform="translate(153,402)"/>
<path d="M0 0 C-2.28176413 2.07384637 -3.44323483 2.98397191 -6.578125 3.07421875 C-7.90070312 2.88279297 -7.90070312 2.88279297 -9.25 2.6875 C-10.14203125 2.56761719 -11.0340625 2.44773437 -11.953125 2.32421875 C-12.62859375 2.21722656 -13.3040625 2.11023438 -14 2 C-14 1.67 -14 1.34 -14 1 C-9.27616037 0.34843591 -4.78025483 -0.11950637 0 0 Z " fill="#E3A452" transform="translate(555,443)"/>
<path d="M0 0 C2 2 2 2 2 6 C0.35 6 -1.3 6 -3 6 C-3.33 5.34 -3.66 4.68 -4 4 C-2.68 2.68 -1.36 1.36 0 0 Z " fill="#E6B466" transform="translate(504,442)"/>
<path d="M0 0 C0.99 0 1.98 0 3 0 C3.33 0.99 3.66 1.98 4 3 C2.68 4.32 1.36 5.64 0 7 C-1.33332095 4.3333581 -0.67102033 2.83319697 0 0 Z " fill="#F4E9D3" transform="translate(365,421)"/>
<path d="M0 0 C2.64 0 5.28 0 8 0 C7.67 1.32 7.34 2.64 7 4 C4.625 3.6875 4.625 3.6875 2 3 C1.34 2.01 0.68 1.02 0 0 Z " fill="#E3A151" transform="translate(662,421)"/>
<path d="M0 0 C0.33 0 0.66 0 1 0 C1.36625971 4.51720311 1.36625971 4.51720311 -0.375 6.8125 C-2 8 -2 8 -4 8 C-4 5 -4 5 -2.5625 3.4375 C-2.046875 2.963125 -1.53125 2.48875 -1 2 C-0.67 1.34 -0.34 0.68 0 0 Z " fill="#E6B566" transform="translate(58,441)"/>
<path d="M0 0 C0.99 0.33 1.98 0.66 3 1 C2.54625 1.433125 2.0925 1.86625 1.625 2.3125 C-0.20024334 4.10798342 -0.20024334 4.10798342 -2 7 C-2.99 6.67 -3.98 6.34 -5 6 C-4.34 6 -3.68 6 -3 6 C-2.87625 5.195625 -2.7525 4.39125 -2.625 3.5625 C-2.41875 2.716875 -2.2125 1.87125 -2 1 C-1.34 0.67 -0.68 0.34 0 0 Z " fill="#E8BC7A" transform="translate(636,385)"/>
<path d="M0 0 C0.66 0.33 1.32 0.66 2 1 C1.34 1.66 0.68 2.32 0 3 C-0.16687448 5.58354218 -0.16687448 5.58354218 0 8 C-1.32 8 -2.64 8 -4 8 C-2.25 2.25 -2.25 2.25 0 0 Z " fill="#E29A53" transform="translate(295,386)"/>
</svg>
