<?xml version="1.0" encoding="UTF-8"?>
<svg version="1.1" xmlns="http://www.w3.org/2000/svg" width="512" height="512">
<path d="M0 0 C9.21458034 7.39288788 13.68276987 17.36591925 17.18554688 28.40136719 C17.91754786 30.66106936 18.70154234 32.89941842 19.48828125 35.140625 C26.60950371 55.84511068 26.60950371 55.84511068 22.22265625 65.8828125 C18.67109262 72.6672097 12.53359582 75.21890664 5.62742615 77.44915771 C4.54896927 77.78175598 3.47051239 78.11435425 2.359375 78.45703125 C1.21432999 78.82242004 0.06928497 79.18780884 -1.11045837 79.56427002 C-4.23690102 80.55894791 -7.36694743 81.54109131 -10.4990387 82.51780319 C-13.82714507 83.55901346 -17.15008558 84.61646606 -20.47363281 85.67211914 C-26.68125398 87.64127365 -32.89311271 89.59666328 -39.10686302 91.54638004 C-45.91602432 93.68350621 -52.71997427 95.83699586 -59.5234375 97.9921875 C-68.87916578 100.95408502 -78.2375254 103.90751575 -87.59765625 106.85546875 C-102.17049181 111.44620223 -116.73419208 116.0655046 -131.29602814 120.69097519 C-133.27730862 121.32030134 -135.25861478 121.94954658 -137.2399292 122.57876587 C-146.54427362 125.53363229 -155.84834531 128.48935688 -165.15234375 131.4453125 C-175.77715669 134.82090158 -186.40207284 138.19616521 -197.02734375 141.5703125 C-197.68132519 141.77799381 -198.33530663 141.98567513 -199.00910568 142.19964981 C-220.23030935 148.93851561 -241.45845948 155.65520105 -262.69228649 162.35419559 C-280.1017092 167.84740336 -297.50687095 173.35397948 -314.91012955 178.86668015 C-318.34227643 179.95382245 -321.77447333 181.04080684 -325.20666504 182.12780762 C-331.8552714 184.23349487 -338.50382593 186.3393457 -345.15234375 188.4453125 C-343.99637221 188.44677771 -343.99637221 188.44677771 -342.81704772 188.44827253 C-297.13942504 188.506548 -251.46185006 188.58034741 -205.78428612 188.67429878 C-200.29938759 188.68556691 -194.8144888 188.69670537 -189.32958984 188.70776367 C-188.23764794 188.70996736 -187.14570604 188.71217104 -186.02067499 188.7144415 C-168.34148819 188.74981124 -150.66230144 188.77467721 -132.98309238 188.79565952 C-114.8417967 188.81742413 -96.70054692 188.85048087 -78.55929029 188.89401406 C-67.36571009 188.92051934 -56.17218709 188.938223 -44.97857706 188.94465854 C-37.30208584 188.94991584 -29.62566659 188.96614437 -21.94921394 188.99097816 C-17.5207073 189.00498135 -13.09232944 189.01416836 -8.66379929 189.01032066 C-4.60580504 189.00690187 -0.54808552 189.01732445 3.50985248 189.03854802 C4.97434507 189.04380145 6.4388663 189.04406606 7.9033585 189.03870813 C20.37588859 188.99774086 29.81335273 190.26885087 39.41015625 198.6953125 C45.43349869 205.49087833 49.0716323 212.4242757 49.13818359 221.66259766 C49.1509433 222.87049957 49.163703 224.07840149 49.17684937 225.32290649 C49.18018784 227.2590834 49.18018784 227.2590834 49.18359375 229.234375 C49.19002745 230.58385355 49.19675623 231.93333072 49.20376587 233.2828064 C49.21570135 236.10198199 49.21945018 238.92103532 49.21826172 241.74023438 C49.21805785 245.34961954 49.24544503 248.95822332 49.27980614 252.56742287 C49.30204836 255.35042926 49.30610023 258.13324606 49.30504227 260.91633224 C49.30854229 262.89281795 49.33020712 264.8692445 49.35214233 266.84561157 C49.34598907 268.04720917 49.33983582 269.24880676 49.33349609 270.48681641 C49.33634613 271.54349518 49.33919617 272.60017395 49.34213257 273.68887329 C48.71780292 277.1691749 47.67648681 278.37101307 44.84765625 280.4453125 C43.52765625 280.4453125 42.20765625 280.4453125 40.84765625 280.4453125 C40.84765625 285.0653125 40.84765625 289.6853125 40.84765625 294.4453125 C42.82765625 295.1053125 44.80765625 295.7653125 46.84765625 296.4453125 C49.13852875 299.88162126 49.1020762 301.14112151 49.11508179 305.18539429 C49.12787674 306.98085693 49.12787674 306.98085693 49.14093018 308.81259155 C49.1400238 310.12788849 49.13911743 311.44318542 49.13818359 312.79833984 C49.14416774 314.19639445 49.15097303 315.59444574 49.15853882 316.99249268 C49.17623111 320.79473714 49.18089593 324.59689161 49.18217039 328.39917326 C49.18359227 330.77877582 49.18786287 333.15835554 49.19316483 335.53795242 C49.21168526 343.85230203 49.21983411 352.16658748 49.21826172 360.48095703 C49.21706412 368.20788878 49.2380859 375.93453946 49.26974905 383.6614002 C49.29600882 390.30875588 49.30662477 396.95602045 49.3053509 403.60342753 C49.30484352 407.56715358 49.31039966 411.53063065 49.331707 415.49430466 C49.35125009 419.23235266 49.35110589 422.96991868 49.33667374 426.70798492 C49.33362593 428.71292999 49.35015461 430.71787592 49.36755371 432.7227478 C49.2634193 447.93112204 44.51071655 460.48399874 34.16015625 471.6953125 C21.61316341 483.51423999 8.05253093 485.90183607 -8.5111084 485.82626343 C-10.1666601 485.82972394 -11.8222095 485.83449114 -13.47775412 485.84044516 C-18.00794882 485.85293079 -22.53795312 485.84679589 -27.06814837 485.83748651 C-31.96120138 485.83068636 -36.85422212 485.84118203 -41.74726868 485.84942627 C-51.32519969 485.86275548 -60.90306011 485.85988947 -70.48099387 485.85118835 C-78.26624036 485.84440902 -86.0514671 485.84349616 -93.8367157 485.8467598 C-95.49973229 485.84744934 -95.49973229 485.84744934 -97.19634518 485.84815282 C-99.44870953 485.84911201 -101.70107388 485.85008465 -103.95343822 485.8510706 C-125.06633076 485.85962211 -146.1791842 485.84979409 -167.29207033 485.8336695 C-185.40192714 485.82026654 -203.51172626 485.8225947 -221.62158203 485.83642578 C-242.65971339 485.85248579 -263.6978105 485.85879816 -284.73594713 485.84958899 C-286.97995535 485.84863336 -289.22396357 485.84769025 -291.4679718 485.8467598 C-292.57202302 485.84629697 -293.67607424 485.84583414 -294.81358156 485.84535729 C-302.58810632 485.84276867 -310.36260934 485.84713565 -318.13713074 485.85419846 C-327.61363092 485.86261831 -337.09005657 485.86032305 -346.56654823 485.84435622 C-351.40018431 485.8364801 -356.23369619 485.83337074 -361.06733131 485.84330368 C-365.49498765 485.85226464 -369.92240502 485.84729463 -374.35003978 485.83137102 C-375.94882911 485.82802916 -377.54763876 485.82970387 -379.14641494 485.83699839 C-395.01482002 485.90382629 -408.39529409 482.52565594 -420.30859375 471.41796875 C-433.49205626 457.31278111 -435.45951822 441.51183911 -435.42700195 422.9675293 C-435.431356 421.31901317 -435.43654145 419.67049906 -435.44248962 418.02198792 C-435.45580896 413.57195 -435.45646676 409.12199737 -435.45392632 404.67194343 C-435.45285288 400.95136965 -435.45774893 397.23081287 -435.46253175 393.51024276 C-435.47360011 384.73622623 -435.47407787 375.96225254 -435.46801758 367.18823242 C-435.46196444 358.14036575 -435.47432881 349.09265405 -435.49558765 340.04481381 C-435.51319313 332.26539517 -435.51920711 324.48602593 -435.5159499 316.70658809 C-435.51413695 312.06475748 -435.51677549 307.42303773 -435.53066444 302.7812252 C-435.54322284 298.42185448 -435.54131767 294.06272652 -435.52825356 289.7033596 C-435.52588477 288.1041811 -435.52863329 286.50498558 -435.53687668 284.90582657 C-435.54731952 282.72267617 -435.53926452 280.54034438 -435.52656555 278.35722351 C-435.52673329 277.13593089 -435.52690104 275.91463827 -435.52707386 274.65633678 C-435.00263353 270.16246081 -433.3070266 267.59999535 -430.15234375 264.4453125 C-429.16234375 264.4453125 -428.17234375 264.4453125 -427.15234375 264.4453125 C-427.08754621 260.58940912 -427.11215251 256.73893833 -427.15234375 252.8828125 C-427.12333984 251.25375977 -427.12333984 251.25375977 -427.09375 249.59179688 C-427.13543176 243.48902074 -427.13543176 243.48902074 -429.88793945 238.23779297 C-431.96015121 236.39157684 -431.96015121 236.39157684 -434.1262207 234.90551758 C-441.6364052 229.49300842 -445.9641848 219.60901749 -447.9765625 210.86328125 C-449.51693924 201.33649264 -449.2644432 192.47988235 -446.05859375 183.3203125 C-444.52143977 178.44382402 -445.62363414 174.05565705 -447.17578125 169.328125 C-450.91887639 156.41479081 -448.85605725 141.14252533 -442.57421875 129.52734375 C-432.21688502 112.24179353 -417.44053737 106.37614668 -399.02734375 100.6328125 C-396.99468987 99.98587885 -394.96247455 99.33756591 -392.93066406 98.68798828 C-387.46754094 96.94598548 -381.99835373 95.22384722 -376.52746582 93.50640869 C-370.93852219 91.74931467 -365.35435462 89.9771678 -359.76953125 88.20703125 C-351.54171996 85.6014216 -343.31158634 83.00331187 -335.07919312 80.41221619 C-318.45920962 75.18103191 -301.85414291 69.90383844 -285.25260925 64.61444855 C-262.90575542 57.4948318 -240.55007954 50.40420175 -218.18212891 43.35107422 C-198.13153348 37.0277496 -178.09516932 30.6604682 -158.06278992 24.27974701 C-135.05116419 16.95023605 -112.02901748 9.65489869 -88.99609375 2.39257812 C-87.90171997 2.04745178 -86.80734619 1.70232544 -85.67980957 1.34674072 C-83.55646563 0.67724352 -81.43301498 0.00808462 -79.30944824 -0.66070557 C-74.1493327 -2.28720817 -68.9927922 -3.92392358 -63.84179688 -5.57910156 C-62.83336731 -5.90250519 -61.82493774 -6.22590881 -60.78594971 -6.55911255 C-58.89061603 -7.167646 -56.99599248 -7.77839761 -55.10223389 -8.39181519 C-35.17933454 -14.78436623 -17.06439882 -12.32600859 0 0 Z " fill="#01013A" transform="translate(456.15234375,19.5546875)"/>
<path d="M0 0 C151.47 0 302.94 0 459 0 C459 4.95 459 9.9 459 15 C457.35 15.66 455.7 16.32 454 17 C451.76243705 18.81679578 451.76243705 18.81679578 451.75225353 21.41183186 C451.75369853 22.94341324 451.75369853 22.94341324 451.75517273 24.50593567 C451.75123505 25.67629364 451.74729736 26.84665161 451.74324036 28.05247498 C451.74893539 29.34331497 451.75463043 30.63415497 451.76049805 31.96411133 C451.75938552 33.33245956 451.75732828 34.7008073 451.75439453 36.06915283 C451.74966348 39.02170777 451.75080198 41.97418325 451.75617027 44.92673683 C451.76377515 49.60581315 451.75312702 54.28473625 451.7389679 58.96379089 C451.70122373 72.27168294 451.68298794 85.57950801 451.69458008 98.88745117 C451.7008212 106.23325074 451.68908395 113.57880431 451.65813476 120.92454356 C451.63958673 125.56424421 451.64269862 130.20324241 451.66230237 134.84293044 C451.66924695 137.74996147 451.65510343 140.65662273 451.63535309 143.56358337 C451.62800206 145.52796759 451.64512368 147.49239735 451.66334534 149.45671082 C451.54795389 160.6389955 448.86988044 171.15738508 440.87890625 179.35546875 C430.41618143 188.51307197 419.48271709 189.44332372 406.05847168 189.38095093 C404.43606867 189.3844107 402.81366802 189.38917741 401.19127226 189.39513266 C396.74809902 189.40762839 392.3051197 189.40147878 387.86194587 189.39217401 C383.06432787 189.38537801 378.26674288 189.39586748 373.46913147 189.40411377 C364.07655354 189.4174474 354.68404757 189.414575 345.29146683 189.40587585 C337.65731283 189.39909827 330.02317898 189.39818291 322.38902283 189.4014473 C321.30212378 189.401907 320.21522472 189.40236669 319.09538934 189.40284032 C316.88731372 189.40379951 314.6792381 189.40477215 312.4711625 189.4057581 C291.77033993 189.41431091 271.06955724 189.40447955 250.36874121 189.388357 C232.60990256 189.37495392 214.85112275 189.37728205 197.09228516 189.39111328 C176.46508519 189.407171 155.83792016 189.41348695 135.21071482 189.40427649 C133.01080227 189.40332085 130.81088973 189.40237774 128.61097717 189.4014473 C126.98741612 189.40075306 126.98741612 189.40075306 125.33105585 189.40004479 C117.70685564 189.39745548 110.08267761 189.40182463 102.45848083 189.40888596 C93.16601421 189.41730327 83.8736236 189.4150159 74.58116567 189.39904372 C69.84082186 189.39116417 65.10060476 189.38806409 60.36026192 189.39799118 C56.01896928 189.40694504 51.67792054 189.40199382 47.33664995 189.38605852 C45.76813102 189.38271366 44.19959138 189.38439817 42.63108581 189.39168589 C29.84749676 189.44651532 19.58911062 187.88153357 9.86328125 179.0625 C-31.67050556 136.07004045 0 59.7779811 0 0 Z " fill="#54A0FE" transform="translate(38,300)"/>
<path d="M0 0 C130.68 0 261.36 0 396 0 C396 4.95 396 9.9 396 15 C394.35 15.66 392.7 16.32 391 17 C389.515 17.99 389.515 17.99 388 19 C385.21812415 19.24658763 385.21812415 19.24658763 381.76266098 19.24165154 C380.44776459 19.24461703 379.13286821 19.24758253 377.77812648 19.25063789 C376.3100709 19.24376572 374.84201622 19.23669998 373.3739624 19.22946167 C371.82131233 19.22906767 370.26866184 19.22954358 368.71601224 19.23081791 C364.43786537 19.23172528 360.15983075 19.22000078 355.88170934 19.20622444 C351.27218476 19.19351814 346.66265512 19.19229274 342.05311584 19.18952942 C333.01732328 19.18213017 323.98158685 19.16353186 314.94582167 19.14056377 C307.60232538 19.12194402 300.25882937 19.10650487 292.91532135 19.09332657 C272.10622839 19.05562185 251.29717853 19.00952043 230.48812899 18.95265304 C229.36556693 18.94958613 228.24300487 18.94651922 227.08642578 18.94335938 C225.96249669 18.940287 224.8385676 18.93721462 223.68058005 18.93404914 C205.46606937 18.88476851 187.25158814 18.85539453 169.03702423 18.83507679 C150.34531451 18.81400076 131.65368417 18.77811323 112.96203256 18.7267276 C102.46377073 18.69817049 91.96557831 18.67576182 81.46727753 18.66924667 C72.52809289 18.66358071 63.5890696 18.64417274 54.64995876 18.60686211 C50.08810987 18.58821679 45.52648332 18.57601735 40.96459389 18.58111382 C36.78836701 18.58561708 32.61261931 18.5717481 28.43649104 18.54323794 C26.92571561 18.5361531 25.41489053 18.53579555 23.90411493 18.54284512 C9.84545451 18.60162242 9.84545451 18.60162242 4 14 C2.44140625 12.0703125 2.44140625 12.0703125 1.5625 10.125 C1.25441406 9.48820312 0.94632812 8.85140625 0.62890625 8.1953125 C0 6 0 6 0 0 Z " fill="#488BFE" transform="translate(101,300)"/>
<path d="M0 0 C0.77722412 0.61302979 1.55444824 1.22605957 2.35522461 1.85766602 C3.65943359 2.87086914 3.65943359 2.87086914 4.98999023 3.90454102 C5.90329102 4.63286133 6.8165918 5.36118164 7.75756836 6.11157227 C9.66491997 7.60011043 11.57247039 9.08839388 13.48022461 10.57641602 C14.39046387 11.29297363 15.30070312 12.00953125 16.23852539 12.74780273 C19.02703028 14.93437633 21.84894868 17.06323459 24.69506836 19.17407227 C31.21065607 24.04193187 37.67185539 28.9810062 44.13647461 33.91625977 C49.30452251 37.86009242 54.48638991 41.78403501 59.69506836 45.67407227 C58.69506836 47.67407227 58.69506836 47.67407227 56.5118103 48.56428528 C55.54667511 48.8645311 54.58153992 49.16477692 53.5871582 49.47412109 C52.49446625 49.81820511 51.40177429 50.16228912 50.27597046 50.51679993 C49.08138214 50.88452011 47.88679382 51.2522403 46.65600586 51.63110352 C44.77821647 52.2194919 42.90042736 52.80788117 41.02265358 53.39631939 C38.37578226 54.22358852 35.72671891 55.04372075 33.07769775 55.86407471 C29.14842697 57.08240787 25.22204603 58.31000911 21.29558182 59.53735161 C18.14842786 60.52108425 15.00063033 61.50261454 11.85150146 62.48001099 C6.76469326 64.06288631 1.68610745 65.6508332 -3.34692383 67.39819336 C-4.40246964 67.76432991 -4.40246964 67.76432991 -5.4793396 68.13786316 C-7.21208 68.74785074 -8.93927877 69.37352375 -10.66577148 70.00097656 C-13.42988253 70.70593995 -14.68815019 70.71734313 -17.30493164 69.67407227 C-19.11706651 68.55060701 -20.88148883 67.34951795 -22.61743164 66.11157227 C-23.78129716 65.28967867 -24.94537729 64.46808894 -26.10961914 63.64672852 C-27.09526855 62.94700928 -27.09526855 62.94700928 -28.10083008 62.2331543 C-32.46393014 59.1468941 -36.85529949 56.10102219 -41.24243164 53.04907227 C-42.21929932 52.3686084 -43.19616699 51.68814453 -44.20263672 50.98706055 C-52.11187323 45.48459179 -60.06163948 40.04336511 -68.03515625 34.63452148 C-70.46220174 32.9865078 -72.88393609 31.33095412 -75.30493164 29.67407227 C-76.02293945 29.19115723 -76.74094727 28.70824219 -77.48071289 28.21069336 C-79.12482778 27.08262956 -80.72124391 25.88550731 -82.30493164 24.67407227 C-82.30493164 24.01407227 -82.30493164 23.35407227 -82.30493164 22.67407227 C-66.01436425 17.09330195 -49.62845369 11.81595922 -33.20410156 6.64382935 C-31.02217057 5.95592561 -28.84101483 5.26555799 -26.66064453 4.57272339 C-23.5573083 3.58758922 -20.45112285 2.61201259 -17.34399414 1.63891602 C-16.40540558 1.33932983 -15.46681702 1.03974365 -14.49978638 0.7310791 C-13.62546967 0.45953003 -12.75115295 0.18798096 -11.8503418 -0.09179688 C-11.09016754 -0.33112442 -10.32999329 -0.57045197 -9.54678345 -0.81703186 C-5.9131224 -1.64186565 -3.27047336 -1.88136223 0 0 Z " fill="#CFDAFD" transform="translate(369.304931640625,42.325927734375)"/>
<path d="M0 0 C1.03535889 0.75635742 2.07071777 1.51271484 3.13745117 2.29199219 C9.36439625 6.78726894 15.73787032 11.0380068 22.16479492 15.24121094 C23.12446671 15.8691304 24.08413849 16.49704987 25.07289124 17.14399719 C29.06644081 19.75355183 33.062587 22.35906199 37.06225586 24.95922852 C40.01646862 26.88145459 42.96590589 28.81083126 45.91479492 30.74121094 C46.82299988 31.32869614 47.73120483 31.91618134 48.66693115 32.52146912 C49.50250549 33.06956741 50.33807983 33.61766571 51.19897461 34.18237305 C51.93396179 34.66073105 52.66894897 35.13908905 53.4262085 35.63194275 C55.24291992 37.02636719 55.24291992 37.02636719 57.24291992 40.02636719 C51.92192751 42.04835174 46.58324118 43.9660258 41.18432617 45.76855469 C40.43690659 46.01880402 39.689487 46.26905334 38.91941833 46.52688599 C37.34400181 47.05370158 35.76831925 47.5797222 34.19238281 48.10498047 C31.84158108 48.88930237 29.4924205 49.67840141 27.14331055 50.46777344 C18.14586638 53.47893147 9.13069115 56.42449929 -0.01171875 58.96826172 C-2.21921904 59.59190465 -4.41637122 60.25991724 -6.57861328 61.02587891 C-12.00591133 62.70853289 -14.97814672 61.81445115 -20.01489258 59.21386719 C-22.32655947 57.84408392 -24.60654061 56.45245215 -26.88208008 55.02636719 C-28.11756882 54.28218751 -29.35482479 53.54093464 -30.59375 52.80249023 C-33.1162161 51.29405808 -35.6289484 49.77118653 -38.13452148 48.23486328 C-43.39505272 45.01545651 -48.73486098 41.93316354 -54.06958008 38.83886719 C-56.00321161 37.70742134 -57.93680548 36.57591111 -59.87036133 35.44433594 C-69.43967517 29.86748519 -79.0986588 24.44696536 -88.75708008 19.02636719 C-88.75708008 18.36636719 -88.75708008 17.70636719 -88.75708008 17.02636719 C-87.17612549 16.53003784 -87.17612549 16.53003784 -85.56323242 16.02368164 C-75.85831667 12.97080808 -66.16675642 9.87817516 -56.48364258 6.75683594 C-55.33595398 6.38720734 -54.18826538 6.01757874 -53.00579834 5.63674927 C-48.24824756 4.10448229 -43.49075005 2.57207 -38.73461914 1.03540039 C-35.21426269 -0.10162829 -31.69280776 -1.23519641 -28.17114258 -2.36816406 C-27.09724274 -2.7160347 -26.0233429 -3.06390533 -24.91690063 -3.4223175 C-23.91750458 -3.74322861 -22.91810852 -4.06413971 -21.88842773 -4.39477539 C-21.01529938 -4.67646072 -20.14217102 -4.95814606 -19.24258423 -5.24836731 C-10.64182386 -7.75805324 -7.12699735 -5.1018017 0 0 Z " fill="#CFDAFD" transform="translate(185.757080078125,107.9736328125)"/>
<path d="M0 0 C1.04285156 0.78117187 2.08570313 1.56234375 3.16015625 2.3671875 C4.40835375 3.28630707 5.65848677 4.20280175 6.91015625 5.1171875 C7.5959375 5.61863281 8.28171875 6.12007812 8.98828125 6.63671875 C13.15469643 9.63041917 17.41254097 12.4904738 21.66015625 15.3671875 C30.69733541 21.50110876 39.68002154 27.7094186 48.63452148 33.96337891 C53.13399284 37.10392265 57.63946351 40.22491895 62.22265625 43.2421875 C61.22265625 45.2421875 61.22265625 45.2421875 59.44595337 46.01177979 C58.67053192 46.25571472 57.89511047 46.49964966 57.09619141 46.75097656 C56.21661774 47.03177063 55.33704407 47.3125647 54.43081665 47.60186768 C53.46751434 47.90082947 52.50421204 48.19979126 51.51171875 48.5078125 C50.51498138 48.82369324 49.51824402 49.13957397 48.49130249 49.46502686 C45.27896111 50.48123404 42.06341179 51.4868428 38.84765625 52.4921875 C36.74847798 53.15425097 34.64951699 53.81700379 32.55078125 54.48046875 C29.44213103 55.46296684 26.33275308 56.44265193 23.22027588 57.41296387 C18.3599365 58.92825923 13.51330376 60.46861447 8.69042969 62.09960938 C7.83113861 62.38551941 6.97184753 62.67142944 6.08651733 62.96600342 C4.50038425 63.49551942 2.91795909 64.03634656 1.34048462 64.59112549 C-4.06700837 66.37876592 -8.57748849 66.7886132 -13.90917969 64.21191406 C-14.52051758 63.77331055 -15.13185547 63.33470703 -15.76171875 62.8828125 C-16.88682861 62.0952356 -16.88682861 62.0952356 -18.03466797 61.29174805 C-19.26854248 60.40096558 -19.26854248 60.40096558 -20.52734375 59.4921875 C-22.43950575 58.14703393 -24.35378242 56.80488408 -26.26953125 55.46484375 C-26.81316315 55.08282303 -27.35679504 54.70080231 -27.91690063 54.3072052 C-33.48442021 50.40990326 -39.13315553 46.63659922 -44.78515625 42.86328125 C-46.75295021 41.54723121 -48.72072349 40.23115023 -50.68847656 38.91503906 C-53.67456143 36.9183204 -56.66177808 34.92341215 -59.65270996 32.93395996 C-62.48758403 31.04690043 -65.31658232 29.15132231 -68.14453125 27.25390625 C-69.01538361 26.67740829 -69.88623596 26.10091034 -70.78347778 25.50694275 C-71.57406586 24.97444412 -72.36465393 24.4419455 -73.17919922 23.89331055 C-73.87673309 23.42781296 -74.57426697 22.96231537 -75.29293823 22.48271179 C-75.78279205 22.07333878 -76.27264587 21.66396576 -76.77734375 21.2421875 C-76.77734375 20.5821875 -76.77734375 19.9221875 -76.77734375 19.2421875 C-71.74643857 17.60513165 -66.71508817 15.96945348 -61.68334961 14.33496094 C-59.97750231 13.78063684 -58.27176981 13.22595932 -56.56616211 12.67089844 C-47.60413776 9.7546215 -38.63789304 6.86841612 -29.62182617 4.12255859 C-26.91112984 3.28359447 -24.21815842 2.40436255 -21.52734375 1.50390625 C-20.73457031 1.24158203 -19.94179687 0.97925781 -19.125 0.70898438 C-17.52588634 0.17816378 -15.92960731 -0.36125565 -14.3359375 -0.90820312 C-8.55882044 -2.7974251 -5.34938236 -3.38568504 0 0 Z " fill="#656565" transform="translate(271.77734375,74.7578125)"/>
<path d="M0 0 C4.45513589 0.28994832 8.91486215 0.41501277 13.37677002 0.55541992 C22.08515681 0.85309778 30.77147321 1.32859451 39.46466064 1.92260742 C38.1589932 5.94744023 36.72723041 9.56519136 34.69903564 13.28198242 C34.13700439 14.31838867 33.57497314 15.35479492 32.99591064 16.42260742 C32.40809814 17.49510742 31.82028564 18.56760742 31.21466064 19.67260742 C30.08416078 21.75057384 28.95397078 23.82870887 27.82403564 25.90698242 C26.38544189 28.55213867 24.94684814 31.19729492 23.46466064 33.92260742 C18.84466064 42.50260742 14.22466064 51.08260742 9.46466064 59.92260742 C-18.25533936 59.92260742 -45.97533936 59.92260742 -74.53533936 59.92260742 C-72.96416912 55.99468183 -71.62885968 53.34562076 -69.28924561 49.94995117 C-68.65552032 49.02499344 -68.02179504 48.10003571 -67.36886597 47.14704895 C-65.88429521 44.99837432 -64.38378447 42.86060338 -62.86561584 40.73553467 C-58.68052135 34.83818896 -54.97113694 29.01311432 -51.82293701 22.49804688 C-39.77546159 -1.3752168 -25.07895523 -1.80801635 0 0 Z " fill="#CFDAFD" transform="translate(219.53533935546875,224.077392578125)"/>
<path d="M0 0 C25.41 0 50.82 0 77 0 C75.61434125 4.15697625 74.31879055 7.6082324 72.38623047 11.45458984 C71.85860107 12.50960693 71.33097168 13.56462402 70.78735352 14.65161133 C70.23619873 15.74368896 69.68504395 16.8357666 69.1171875 17.9609375 C68.60808838 18.97712158 68.09898926 19.99330566 67.57446289 21.0402832 C65.67902682 24.82072382 63.77659953 28.59765591 61.875 32.375 C57.62625 40.83125 53.3775 49.2875 49 58 C23.26 58 -2.48 58 -29 58 C-18.65461754 36.15974813 -18.65461754 36.15974813 -14.74609375 28.61328125 C-14.16994324 27.49197815 -14.16994324 27.49197815 -13.58215332 26.34802246 C-12.20391748 23.66780759 -10.8204525 20.99028419 -9.4375 18.3125 C-6.323125 12.269375 -3.20875 6.22625 0 0 Z " fill="#CFDAFD" transform="translate(363,226)"/>
<path d="M0 0 C19.8 0 39.6 0 60 0 C51.82670455 12.84375 51.82670455 12.84375 47.75 18.9375 C47.26619873 19.66187256 46.78239746 20.38624512 46.28393555 21.13256836 C41.15507823 28.79494818 35.9847606 36.429385 30.8125 44.0625 C30.38296021 44.69703094 29.95342041 45.33156189 29.51086426 45.98532104 C28.2857872 47.79441716 27.05916633 49.60245569 25.83203125 51.41015625 C25.11764893 52.46340088 24.4032666 53.51664551 23.66723633 54.60180664 C22 57 22 57 21 58 C18.01701786 58.0952822 15.05723655 58.12552175 12.07397461 58.11352539 C11.13748581 58.11367142 10.20099701 58.11381744 9.23612976 58.1139679 C6.12484461 58.11326837 3.01361851 58.10547415 -0.09765625 58.09765625 C-2.24857043 58.09579221 -4.39948503 58.09436824 -6.55039978 58.09336853 C-12.22381758 58.08954225 -17.89720995 58.07971102 -23.57061768 58.06866455 C-29.35501766 58.0584528 -35.13942173 58.05387142 -40.92382812 58.04882812 C-52.28256507 58.03808885 -63.64127645 58.02049116 -75 58 C-75 50.08 -75 42.16 -75 34 C-68.25 36.9375 -68.25 36.9375 -66.14550781 37.85913086 C-60.11481376 40.46297784 -55.29787297 41.1818062 -48.75 41.1875 C-47.66138672 41.20586914 -47.66138672 41.20586914 -46.55078125 41.22460938 C-34.53930435 41.25672562 -22.26194678 36.49449954 -13.5 28.1875 C-6.05789316 19.93265772 -2.15511537 10.77557685 0 0 Z " fill="#656566" transform="translate(104,226)"/>
<path d="M0 0 C1.18136536 0.01332367 2.36273071 0.02664734 3.57989502 0.04037476 C4.23396835 0.0394986 4.88804169 0.03862244 5.56193542 0.03771973 C7.71661266 0.04188894 9.86814719 0.0884956 12.02227783 0.1355896 C13.51870014 0.14678445 15.01514449 0.15532328 16.51159668 0.16131592 C20.44459063 0.18419252 24.37624866 0.24310254 28.30871582 0.30953979 C32.32372973 0.37098943 36.33896017 0.39833646 40.35430908 0.42855835 C48.22861913 0.49284965 56.10184467 0.5952118 63.97540283 0.7215271 C62.60700481 4.93048239 61.05609926 8.80653606 59.06915283 12.76449585 C58.49463379 13.91232544 57.92011475 15.06015503 57.32818604 16.24276733 C56.71084278 17.46498081 56.09324343 18.68706496 55.47540283 19.9090271 C54.84401956 21.16425797 54.21275416 22.41954814 53.581604 23.67489624 C43.06712394 44.5468334 43.06712394 44.5468334 37.97540283 53.7215271 C37.59669037 54.57333557 37.21797791 55.42514404 36.82778931 56.30276489 C34.97540283 58.7215271 34.97540283 58.7215271 31.99513245 59.32279968 C30.16645882 59.3061451 30.16645882 59.3061451 28.30084229 59.28915405 C27.62740784 59.28988419 26.95397339 59.29061432 26.26013184 59.29136658 C24.03549467 59.28788462 21.81295503 59.2490014 19.58868408 59.20980835 C18.04598637 59.20048222 16.50327384 59.19336516 14.96055603 59.18836975 C10.9011645 59.16928369 6.84266828 59.12017047 2.78363037 59.06484985 C-1.35870247 59.01369118 -5.50118007 58.99086303 -9.64373779 58.96566772 C-17.77110168 58.91205202 -25.89773804 58.82672129 -34.02459717 58.7215271 C-32.64443647 55.21865471 -31.14370971 51.88005118 -29.40740967 48.53793335 C-28.88848145 47.53802368 -28.36955322 46.53811401 -27.8348999 45.50790405 C-27.27875 44.44402466 -26.7226001 43.38014526 -26.14959717 42.2840271 C-25.57604492 41.18469849 -25.00249268 40.08536987 -24.41156006 38.95272827 C-20.48378119 31.44973943 -16.50428746 23.97599495 -12.46209717 16.5340271 C-11.97434814 15.63305298 -11.48659912 14.73207886 -10.98406982 13.80380249 C-10.52177979 12.95809692 -10.05948975 12.11239136 -9.58319092 11.24105835 C-9.18414551 10.50991821 -8.7851001 9.77877808 -8.3739624 9.02548218 C-7.70602661 7.88502441 -7.70602661 7.88502441 -7.02459717 6.7215271 C-6.47298416 5.69805679 -5.92137115 4.67458649 -5.3530426 3.62010193 C-3.02459717 0.7215271 -3.02459717 0.7215271 0 0 Z " fill="#656565" transform="translate(281.02459716796875,225.27847290039063)"/>
<path d="M0 0 C0.80856445 0.49105225 1.61712891 0.98210449 2.45019531 1.48803711 C3.37960938 2.04233398 4.30902344 2.59663086 5.26660156 3.16772461 C6.26046875 3.77745117 7.25433594 4.38717773 8.27832031 5.01538086 C10.43922607 6.3092729 12.60070413 7.60220954 14.76269531 8.89428711 C15.87837891 9.5660498 16.9940625 10.2378125 18.14355469 10.92993164 C23.5667046 14.17114775 29.04823051 17.30924424 34.52832031 20.45288086 C46.89059303 27.57021294 59.21470028 34.75174692 71.52832031 41.95288086 C68.98455614 44.49664503 66.78552104 45.0290178 63.36816406 46.15991211 C62.75050674 46.36577942 62.13284943 46.57164673 61.49647522 46.78375244 C59.48832965 47.45076222 57.47730378 48.10851213 55.46582031 48.76538086 C54.09142406 49.21828099 52.71707515 49.67132479 51.34277344 50.12451172 C25.44006427 58.63513823 25.44006427 58.63513823 16.52832031 59.95288086 C16.0784375 59.3122168 15.62855469 58.67155273 15.16503906 58.01147461 C7.18055845 47.27482833 -4.14048926 40.11029488 -17.47167969 37.95288086 C-29.63674259 37.0347629 -39.71512026 39.46222463 -50.19433594 45.64819336 C-52.47167969 46.95288086 -52.47167969 46.95288086 -55.47167969 47.95288086 C-57.99141122 42.9134178 -57.07441468 35.52358192 -55.82324219 30.18725586 C-52.1128777 20.10267547 -45.76149899 13.16727621 -36.47167969 7.95288086 C-32.99436601 6.46903426 -29.45892936 5.31153962 -25.84667969 4.20288086 C-24.94433594 3.9128418 -24.04199219 3.62280273 -23.11230469 3.32397461 C-20.57135771 2.51279766 -18.02309833 1.73035627 -15.47167969 0.95288086 C-14.22644531 0.55584961 -12.98121094 0.15881836 -11.69824219 -0.25024414 C-7.48137296 -1.29169853 -4.07078484 -1.72457489 0 0 Z " fill="#646465" transform="translate(80.4716796875,134.047119140625)"/>
<path d="M0 0 C1.41077707 -0.0083016 1.41077707 -0.0083016 2.85005468 -0.0167709 C6.00938833 -0.03041113 9.16793661 -0.01538968 12.32725525 -0.00050354 C14.58896216 -0.00428545 16.85066677 -0.00978444 19.11236572 -0.01687622 C25.2609926 -0.03086384 31.4093407 -0.01963805 37.55795217 -0.00316501 C43.98410224 0.01065999 50.4102357 0.00422839 56.83639526 0.0007019 C67.62800172 -0.00200204 78.41947048 0.0114046 89.21104431 0.03465271 C100.31883365 0.0585794 111.42647602 0.06565493 122.5342865 0.05516052 C135.91513782 0.04254127 149.29588511 0.04503497 162.67674065 0.06081963 C167.7903394 0.06658864 172.90388898 0.06648958 178.01748848 0.06175423 C184.03473949 0.05699382 190.05178621 0.0670473 196.06899834 0.08870888 C198.28177578 0.09428945 200.4945728 0.09473048 202.70735168 0.08975601 C205.71911153 0.08383279 208.7302405 0.09625131 211.74194336 0.11352539 C213.06712002 0.10451032 213.06712002 0.10451032 214.41906792 0.09531313 C220.38360068 0.15787197 220.38360068 0.15787197 222.52505583 1.89240688 C224.19008034 3.98117704 224.27171372 5.28754046 224.30747986 7.93870544 C224.35388611 9.08145935 224.35388611 9.08145935 224.40122986 10.24729919 C223.48616452 13.72093536 221.83155683 14.61794334 218.80747986 16.50120544 C215.74469 17.08410717 212.73249008 17.04549268 209.62205505 17.01586914 C208.69434437 17.02281467 207.76663369 17.0297602 206.81081057 17.0369162 C203.70073217 17.05521949 200.59141369 17.04491248 197.48130798 17.03465271 C195.25225248 17.04170943 193.02320178 17.05045341 190.79415894 17.0607605 C184.73844899 17.08329049 178.68299996 17.08030642 172.62726402 17.07143903 C167.57479398 17.06633481 162.52237321 17.07361702 157.46990824 17.0809111 C144.87169455 17.09889412 132.2736371 17.09248765 119.67543966 17.0747413 C108.73443602 17.06004215 97.79370695 17.0746759 86.85273868 17.10351146 C75.61681779 17.13290376 64.3810205 17.14337009 53.14505148 17.13432926 C46.83754703 17.12939334 40.53025609 17.13165199 34.22277832 17.15211678 C28.29323215 17.17043395 22.36419749 17.16456326 16.43467903 17.13991737 C14.25660013 17.1348972 12.07848253 17.13843031 9.90043449 17.15106583 C6.9306651 17.16693354 3.96259307 17.15210433 0.99290466 17.12939453 C0.12763421 17.14123026 -0.73763625 17.15306599 -1.62912703 17.16526037 C-5.94870762 17.09798627 -7.68832889 16.88555493 -11.23145294 14.18459988 C-13.19252014 11.50120544 -13.19252014 11.50120544 -13.75502014 7.93870544 C-13.19252014 4.50120544 -13.19252014 4.50120544 -11.7318964 2.31768703 C-7.93699657 -0.39690308 -4.56018405 -0.04970448 0 0 Z " fill="#02043E" transform="translate(81.19252014160156,376.49879455566406)"/>
<path d="M0 0 C7.71145215 6.34329129 12.80812296 13.24313905 14.16796875 23.359375 C14.59573557 33.02459295 11.94243636 41.50217029 6 49.1875 C0.45861371 55.0430886 -7.61523926 58.78272049 -15.58203125 59.5859375 C-23.10298836 59.67034779 -28.80005929 59.24222636 -35.25 55.25 C-36.29607422 54.63125 -36.29607422 54.63125 -37.36328125 54 C-44.75085272 49.10277748 -48.89617318 41.6809797 -51.25 33.25 C-52.31464729 23.49485975 -51.09340201 15.58849321 -45.33203125 7.5859375 C-33.91985498 -6.10867402 -15.22939879 -10.84913362 0 0 Z " fill="#FCC660" transform="translate(75.25,192.75)"/>
<path d="M0 0 C0.85142578 -0.020625 1.70285156 -0.04125 2.58007812 -0.0625 C7.75998166 -0.0945489 11.33623294 0.35115008 15.8125 3.25 C19.73513116 7.49951709 22.07161778 11.09056329 22.03955078 16.92675781 C22.03930908 17.8602002 22.03906738 18.79364258 22.03881836 19.75537109 C22.02347046 21.21450928 22.02347046 21.21450928 22.0078125 22.703125 C22.00579834 23.60337402 22.00378418 24.50362305 22.00170898 25.43115234 C21.99126103 28.78748688 21.96333842 32.14374866 21.9375 35.5 C21.89625 43.0075 21.855 50.515 21.8125 58.25 C2.3425 58.25 -17.1275 58.25 -37.1875 58.25 C-35.74492377 53.9222713 -34.35229813 50.3516958 -32.31640625 46.34765625 C-31.74688232 45.22012939 -31.1773584 44.09260254 -30.59057617 42.9309082 C-30.29009369 42.34024567 -29.98961121 41.74958313 -29.68002319 41.14102173 C-28.09809606 38.03078947 -26.52896575 34.91413248 -24.9609375 31.796875 C-24.64394394 31.16703201 -24.32695038 30.53718903 -24.00035095 29.88825989 C-20.38164034 22.67727711 -16.91642491 15.39379983 -13.47680664 8.09594727 C-13.05520264 7.20447998 -12.63359863 6.3130127 -12.19921875 5.39453125 C-11.64947388 4.22434448 -11.64947388 4.22434448 -11.08862305 3.03051758 C-8.89476443 -1.30429978 -4.36890865 0.02587067 0 0 Z " fill="#646465" transform="translate(467.1875,225.75)"/>
<path d="M0 0 C8.45010043 6.60948449 12.04741279 14.4310541 15.27148438 24.38183594 C15.98554466 26.58269304 16.7348519 28.76937457 17.48828125 30.95703125 C17.96455856 32.38073674 18.4385935 33.80519475 18.91015625 35.23046875 C19.13405029 35.88926025 19.35794434 36.54805176 19.58862305 37.22680664 C20.77524684 40.97243568 21.53953847 43.84724233 19.97265625 47.54296875 C17.86328125 48.87109375 17.86328125 48.87109375 15.22265625 49.79296875 C14.3615625 50.1075 13.50046875 50.42203125 12.61328125 50.74609375 C11.741875 51.0090625 10.87046875 51.27203125 9.97265625 51.54296875 C9.18375 51.84589844 8.39484375 52.14882812 7.58203125 52.4609375 C3.45994501 52.59052404 1.02893645 50.08302453 -2.02734375 47.60546875 C-3.45952826 46.48814388 -4.8918257 45.37096376 -6.32421875 44.25390625 C-7.08541016 43.6515918 -7.84660156 43.04927734 -8.63085938 42.42871094 C-12.80607007 39.14332714 -17.04668772 35.94390288 -21.27734375 32.73046875 C-23.05469709 31.37371048 -24.83204076 30.01693954 -26.609375 28.66015625 C-32.86026757 23.89919004 -39.15114062 19.19182636 -45.45605469 14.50268555 C-49.75365986 11.29556418 -53.94596245 8.02164205 -58.02734375 4.54296875 C-55.6113086 2.1269336 -53.78821964 1.66186419 -50.5390625 0.6328125 C-49.44013672 0.28283203 -48.34121094 -0.06714844 -47.20898438 -0.42773438 C-45.47938477 -0.96817383 -45.47938477 -0.96817383 -43.71484375 -1.51953125 C-42.57337891 -1.88369141 -41.43191406 -2.24785156 -40.25585938 -2.62304688 C-25.91381533 -7.15784865 -13.07488281 -8.86388676 0 0 Z " fill="#646465" transform="translate(443.02734375,30.45703125)"/>
<path d="M0 0 C1.37893181 -0.0131424 1.37893181 -0.0131424 2.78572083 -0.02655029 C5.81921834 -0.04852586 8.85125374 -0.03399783 11.88476562 -0.01708984 C13.99556762 -0.0204585 16.10636773 -0.02531153 18.21716309 -0.03158569 C22.6389413 -0.03895454 27.06021417 -0.02825076 31.48193359 -0.00488281 C37.14837619 0.02360455 42.81363472 0.00720071 48.48003387 -0.02274513 C52.83812371 -0.04081751 57.19593306 -0.03506026 61.55403137 -0.02210617 C63.64321533 -0.01877202 65.73242481 -0.02285955 67.82157898 -0.03450394 C70.74241531 -0.04721133 73.66133743 -0.0278367 76.58203125 0 C77.44451981 -0.01012115 78.30700836 -0.02024231 79.19563293 -0.03067017 C83.58541421 0.04679249 85.27809894 0.24215647 88.84094238 3.05410767 C90.79101562 5.64697266 90.79101562 5.64697266 91.20117188 7.77978516 C91.08644531 8.43720703 90.97171875 9.09462891 90.85351562 9.77197266 C90.71623047 10.76583984 90.71623047 10.76583984 90.57617188 11.77978516 C89.43640997 14.49026371 88.38273558 15.19696192 85.79101562 16.64697266 C82.76230778 17.1066354 79.75433622 17.07724465 76.69555664 17.06689453 C75.77641479 17.07536407 74.85727295 17.08383362 73.91027832 17.09255981 C70.87168546 17.11596052 67.83359803 17.11695125 64.79492188 17.11572266 C62.68269141 17.12282226 60.57046289 17.13052096 58.45823669 17.13879395 C54.03061563 17.15224575 49.6031729 17.15380429 45.17553711 17.14794922 C39.50128769 17.14205189 33.82789351 17.17264331 28.15380955 17.2130661 C23.79147226 17.23891361 19.42934171 17.24182319 15.0669384 17.23817444 C12.97494291 17.23986838 10.88293814 17.24953714 8.79101753 17.26731873 C5.86538548 17.28945034 2.94149515 17.27983591 0.01586914 17.26220703 C-0.84819046 17.27547028 -1.71225006 17.28873352 -2.60249329 17.30239868 C-6.95869618 17.24139726 -8.69078209 17.04805001 -12.24647522 14.29602051 C-14.20898438 11.64697266 -14.20898438 11.64697266 -14.83398438 8.64697266 C-13.12267473 0.43268638 -7.09728714 -0.08328544 0 0 Z " fill="#00013B" transform="translate(82.208984375,423.35302734375)"/>
<path d="M0 0 C6.41486669 3.33540044 11.69399859 7.10443776 16.171875 12.8125 C18.52628276 14.34185889 20.15349929 14.14540141 22.85839844 13.63085938 C25.4330758 12.87242728 27.80878257 11.84653123 30.265625 10.765625 C45.55722334 4.18287812 45.55722334 4.18287812 51.97070312 5.70507812 C57.88944329 8.25336777 63.06469698 11.88489061 68 16 C65.45623583 18.54376417 63.25720073 19.07613694 59.83984375 20.20703125 C58.91335777 20.51583221 58.91335777 20.51583221 57.96815491 20.83087158 C55.96000934 21.49788136 53.94898347 22.15563127 51.9375 22.8125 C50.56310375 23.26540013 49.18875483 23.71844393 47.81445312 24.17163086 C21.91174396 32.68225737 21.91174396 32.68225737 13 34 C12.55011719 33.35933594 12.10023437 32.71867187 11.63671875 32.05859375 C3.82094001 21.54879909 -7.09065196 14.28283112 -20.18359375 12.31640625 C-24.11475306 11.78893424 -28.05134709 11.37232955 -32 11 C-31.37375504 5.71722076 -30.89116169 2.78599516 -27 -1 C-18.23393253 -6.77763538 -9.05722029 -3.62715536 0 0 Z " fill="#4C4C4D" transform="translate(84,160)"/>
<path d="M0 0 C1.38847724 0.98957012 2.78333726 1.97031592 4.1875 2.9375 C5.115625 3.618125 6.04375 4.29875 7 5 C6 7 6 7 4.22329712 7.76959229 C3.44787567 8.01352722 2.67245422 8.25746216 1.87353516 8.50878906 C0.55417465 8.92998016 0.55417465 8.92998016 -0.7918396 9.35968018 C-1.75514191 9.65864197 -2.71844421 9.95760376 -3.7109375 10.265625 C-4.70767487 10.58150574 -5.70441223 10.89738647 -6.73135376 11.22283936 C-9.94369514 12.23904654 -13.15924446 13.2446553 -16.375 14.25 C-18.47417827 14.91206347 -20.57313926 15.57481629 -22.671875 16.23828125 C-25.78052522 17.22077934 -28.88990317 18.20046443 -32.00238037 19.17077637 C-36.86271975 20.68607173 -41.70935249 22.22642697 -46.53222656 23.85742188 C-47.39151764 24.14333191 -48.25080872 24.42924194 -49.13613892 24.72381592 C-50.722272 25.25333192 -52.30469716 25.79415906 -53.88217163 26.34893799 C-59.31303023 28.14430276 -63.80877356 28.51578771 -69.17163086 25.96850586 C-69.76339111 25.55479736 -70.35515137 25.14108887 -70.96484375 24.71484375 C-71.94614258 24.04291992 -71.94614258 24.04291992 -72.94726562 23.35742188 C-73.60404297 22.88884766 -74.26082031 22.42027344 -74.9375 21.9375 C-75.62134766 21.46505859 -76.30519531 20.99261719 -77.00976562 20.50585938 C-78.68118547 19.34872256 -80.34174777 18.17592919 -82 17 C-78.69953381 14.79968921 -75.44169372 13.71647356 -71.703125 12.53125 C-70.96969879 12.29420853 -70.23627258 12.05716705 -69.48062134 11.8129425 C-65.4058578 10.49857242 -61.32413416 9.20623939 -57.24267578 7.9128418 C-55.5444519 7.3733386 -53.84637336 6.83337773 -52.1484375 6.29296875 C-50.87209946 5.88723885 -50.87209946 5.88723885 -49.56997681 5.47331238 C-44.73815857 3.92345083 -39.95132366 2.28970906 -35.19104004 0.53237915 C-32.41469384 -0.49211606 -29.62702537 -1.48354147 -26.83825684 -2.47363281 C-25.54195633 -2.94498551 -24.251644 -3.43318663 -22.96838379 -3.93896484 C-12.90519144 -7.89560351 -8.22710444 -6.90065322 0 0 Z " fill="#4C4C4D" transform="translate(327,113)"/>
<path d="M0 0 C6.12415343 3.84282322 12.16865561 7.72368078 18 12 C17 14 17 14 13.53540039 15.29345703 C11.97530657 15.78946862 10.41247728 16.27692231 8.84765625 16.7578125 C8.00849167 17.02229187 7.16932709 17.28677124 6.30473328 17.55926514 C3.55967969 18.42225361 0.8113115 19.27406409 -1.9375 20.125 C-3.81427398 20.71063137 -5.69090139 21.29673267 -7.56738281 21.88330078 C-11.30464212 23.05039774 -15.04328057 24.2129397 -18.78271484 25.37304688 C-22.66857302 26.58099405 -26.5473965 27.80863966 -30.42066956 29.05630493 C-33.36138176 30.00338597 -36.30614622 30.93773768 -39.25 31.875 C-40.28761475 32.21418457 -41.32522949 32.55336914 -42.39428711 32.90283203 C-43.34182861 33.20044434 -44.28937012 33.49805664 -45.265625 33.8046875 C-46.46880371 34.19116455 -46.46880371 34.19116455 -47.69628906 34.58544922 C-51.90792824 35.34333003 -55.17281817 34.14846146 -58.76953125 32.00390625 C-59.43017578 31.61009766 -60.09082031 31.21628906 -60.77148438 30.81054688 C-61.44501953 30.39869141 -62.11855469 29.98683594 -62.8125 29.5625 C-63.50537109 29.15451172 -64.19824219 28.74652344 -64.91210938 28.32617188 C-66.64655453 27.27866953 -68.32877914 26.14567971 -70 25 C-70 24.34 -70 23.68 -70 23 C-54.74739474 18.08666076 -39.47227744 13.25194113 -24.16796875 8.50244141 C-11.21583388 5.71207865 -11.21583388 5.71207865 0 0 Z " fill="#BDD0FD" transform="translate(225,135)"/>
<path d="M0 0 C3.32223207 2.52489638 5.17117823 4.70181508 7.125 8.375 C7.125 9.365 7.125 10.355 7.125 11.375 C0.3817478 13.49653659 -6.36276047 15.61404239 -13.1081543 17.72875977 C-15.40239059 18.44853607 -17.69633849 19.16923229 -19.98999023 19.89086914 C-23.28814388 20.92837017 -26.5873228 21.96255125 -29.88671875 22.99609375 C-30.91085373 23.31903915 -31.93498871 23.64198456 -32.99015808 23.97471619 C-33.95077652 24.27495193 -34.91139496 24.57518768 -35.90112305 24.88452148 C-36.74273483 25.14877426 -37.58434662 25.41302704 -38.45146179 25.68528748 C-43.34187 27.07704428 -43.34187 27.07704428 -45.875 27.375 C-48.46438908 25.88360583 -50.65514685 24.43177106 -53 22.625 C-53.62003906 22.16867188 -54.24007813 21.71234375 -54.87890625 21.2421875 C-57.74946995 19.10624118 -60.38116592 16.94837476 -62.875 14.375 C-56.04601166 12.07867306 -49.21031679 9.8032428 -42.37060547 7.5390625 C-38.93116662 6.3937039 -35.4987465 5.22893032 -32.06640625 4.0625 C-29.87784661 3.33260598 -27.68905169 2.60341699 -25.5 1.875 C-24.48623291 1.52501953 -23.47246582 1.17503906 -22.42797852 0.81445312 C-15.12609877 -1.58709157 -7.21784425 -3.66986435 0 0 Z " fill="#BDD0FD" transform="translate(398.875,85.625)"/>
</svg>
